<svg width="116" height="87" viewBox="0 0 116 87" fill="none" xmlns="http://www.w3.org/2000/svg">
<path d="M67.594 66.2032C67.594 71.9801 69.6737 76.9482 73.8331 81.1076C77.7614 85.0359 82.7295 87 88.7375 87C97.0562 87 103.526 84.1116 108.148 78.3347C112.769 72.3267 115.08 65.3944 115.08 57.5378C115.08 45.5219 111.498 34.6614 104.335 24.9562C97.1717 15.0199 88.9685 6.70119 79.7255 0L67.9406 11.7849C69.7892 13.8645 72.1 16.2908 74.8729 19.0637C77.6458 21.6056 80.0721 24.3785 82.1518 27.3825C84.0004 30.3865 84.9247 33.3904 84.9247 36.3944C84.9247 39.3984 83.5382 42.0558 80.7653 44.3665C77.7614 46.6773 74.8729 49.4502 72.1 52.6853C69.096 55.9203 67.594 60.4263 67.594 66.2032ZM0.00437927 66.2032C0.00437927 71.9801 2.08406 76.9482 6.24343 81.1076C10.1717 85.0359 15.1398 87 21.1478 87C29.4665 87 35.9367 84.1116 40.5582 78.3347C45.1797 72.3267 47.4904 65.3944 47.4904 57.5378C47.4904 45.5219 43.9088 34.6614 36.7454 24.9562C29.5821 15.0199 21.3789 6.70119 12.1358 0L0.350998 11.7849C2.1996 13.8645 4.51035 16.2908 7.28326 19.0637C10.0562 21.6056 12.4825 24.3785 14.5621 27.3825C16.4108 30.3865 17.3351 33.3904 17.3351 36.3944C17.3351 39.3984 15.9486 42.0558 13.1757 44.3665C10.1717 46.6773 7.28327 49.4502 4.51036 52.6853C1.50638 55.9203 0.00437927 60.4263 0.00437927 66.2032Z" fill="#F2F2F2"/>
</svg>
