<svg width="139" height="32" viewBox="0 0 139 32" fill="none" xmlns="http://www.w3.org/2000/svg">
<g clip-path="url(#clip0_2215_52)">
<path d="M114.745 0.887903C114.759 0.720964 114.715 0.704444 114.613 0.837473C114.499 0.987022 114.417 1.18352 114.367 1.42697C114.357 1.47827 114.326 1.50349 114.273 1.50175C114.238 1.50088 114.207 1.47653 114.199 1.44176C114.001 0.691402 114.51 0.361873 115.042 0.0140845C115.081 -0.0119996 115.133 -0.000696459 115.159 0.0384297C115.164 0.044516 115.166 0.0514718 115.169 0.0584276C115.288 0.425344 115.156 0.801825 115.031 1.15135C114.985 1.2809 114.907 1.38176 114.798 1.45219C114.623 1.56435 114.572 1.52349 114.643 1.32872C114.7 1.17309 114.734 1.02615 114.745 0.887903Z" fill="black"/>
<path d="M113.533 1.27392C113.502 1.43477 113.517 1.62519 113.581 1.84516C113.588 1.87385 113.583 1.89907 113.564 1.92081C113.552 1.93559 113.536 1.94254 113.517 1.94341C113.487 1.94428 113.462 1.93298 113.444 1.90863C113.231 1.62519 113.139 1.32174 113.31 0.969605C113.389 0.807014 113.473 0.653118 113.561 0.508786C113.583 0.473137 113.629 0.460095 113.666 0.480093C113.89 0.60095 114.069 1.42695 113.938 1.66431C113.847 1.83038 113.786 1.81995 113.754 1.63388C113.73 1.49737 113.694 1.37304 113.647 1.26175C113.595 1.14437 113.558 1.14872 113.533 1.27392Z" fill="black"/>
<path d="M112.579 2.1587C112.557 2.19174 112.549 2.22912 112.553 2.26999C112.572 2.43258 112.611 2.59169 112.668 2.74733C112.684 2.79254 112.685 2.83862 112.67 2.88557C112.659 2.91948 112.624 2.93774 112.59 2.92731C112.582 2.9247 112.574 2.92035 112.567 2.91427C112.208 2.5943 112.127 2.21347 112.325 1.77265C112.381 1.64658 112.426 1.52398 112.462 1.404C112.475 1.36052 112.52 1.33618 112.564 1.34922C112.575 1.3527 112.586 1.35878 112.595 1.36661C112.848 1.59267 113.003 1.94133 113.06 2.41171C113.073 2.51344 113.049 2.60213 112.987 2.67603C112.977 2.6882 112.965 2.69777 112.95 2.70559C112.902 2.73255 112.87 2.7195 112.857 2.66473C112.818 2.49866 112.75 2.33085 112.655 2.1613C112.643 2.13957 112.616 2.13261 112.594 2.14565C112.588 2.14913 112.584 2.15348 112.579 2.1587Z" fill="black"/>
<path d="M114.449 1.67302C114.469 1.66693 114.478 1.67389 114.476 1.69475C114.473 1.73562 114.456 1.76866 114.425 1.79387C114.096 2.05385 113.834 2.38685 113.608 2.73812C112.173 4.97527 110.309 6.96723 108.062 8.41924C105.948 9.78605 103.558 10.5312 101.059 10.8625C98.7872 11.1642 96.5975 10.9024 94.4886 10.0773C94.0392 9.90169 93.5881 9.71997 93.1352 9.53303C93.1326 9.53216 93.1308 9.52955 93.1317 9.52608L93.1386 9.50521C93.143 9.49391 93.1508 9.48956 93.1621 9.49217C94.4547 9.80431 95.743 10.0104 97.0252 10.1104C101.298 10.4399 105.151 9.41131 108.585 7.02461C110.481 5.70649 112.053 4.1058 113.503 2.32077C113.751 2.01559 114.066 1.79909 114.449 1.67302Z" fill="black"/>
<path d="M115.196 2.21937C115.223 2.21763 115.228 2.20633 115.211 2.18546C115.169 2.13069 115.112 2.09591 115.04 2.08287C115.023 2.08026 115.005 2.08113 114.988 2.08548L114.584 2.20111C114.548 2.21155 114.512 2.19068 114.501 2.15503C114.499 2.14547 114.498 2.1359 114.499 2.12634C114.551 1.78464 114.762 1.63857 115.131 1.68813C115.439 1.72899 115.787 1.8029 116.174 1.90897C116.192 1.91419 116.202 1.93332 116.197 1.95071C116.196 1.95419 116.195 1.95766 116.192 1.96114C115.992 2.24546 115.713 2.42892 115.359 2.46543C115.054 2.4976 114.774 2.49674 114.519 2.46283C114.492 2.45848 114.472 2.44457 114.459 2.41935C114.44 2.38196 114.445 2.34458 114.472 2.30719C114.489 2.28545 114.511 2.27328 114.538 2.27067L115.196 2.21937Z" fill="black"/>
<path d="M111.672 3.30872C111.641 3.48522 111.667 3.66955 111.752 3.8617C111.763 3.88692 111.769 3.91213 111.77 3.93909C111.77 3.95474 111.767 3.96952 111.761 3.98343C111.742 4.02777 111.69 4.04864 111.646 4.02864C111.635 4.02429 111.625 4.01734 111.617 4.00864C111.313 3.68781 111.21 3.37045 111.387 2.95571C111.453 2.80095 111.507 2.64618 111.552 2.49142C111.56 2.46359 111.588 2.4462 111.617 2.45403C111.623 2.45577 111.629 2.45838 111.634 2.46272C111.938 2.6827 112.059 3.08005 112.141 3.43218C112.167 3.54521 112.156 3.65042 112.108 3.74693C112.028 3.90691 111.967 3.89996 111.925 3.72606C111.885 3.56347 111.824 3.42001 111.743 3.29481C111.707 3.23916 111.683 3.24351 111.672 3.30872Z" fill="black"/>
<path d="M114.666 3.33163C114.529 3.08992 114.253 3.25511 114.059 3.26642C113.94 3.27424 113.909 3.22555 113.966 3.12035C114.185 2.71604 114.532 2.79082 114.899 2.8995C115.162 2.97688 115.383 3.09774 115.659 3.14208C115.682 3.14556 115.697 3.1673 115.693 3.1899C115.691 3.19773 115.688 3.20555 115.683 3.21164C115.459 3.45161 115.226 3.58464 114.983 3.61073C114.725 3.63768 114.423 3.62725 114.078 3.57769C114.007 3.56725 113.947 3.53943 113.898 3.49509C113.879 3.4777 113.869 3.45509 113.87 3.42814C113.872 3.37684 113.898 3.3525 113.948 3.35423L114.638 3.37684C114.674 3.37771 114.684 3.36293 114.666 3.33163Z" fill="black"/>
<path d="M110.515 4.2286C110.428 4.42771 110.484 4.75115 110.515 4.95809C110.548 5.19197 110.488 5.21893 110.336 5.03895C109.836 4.45292 110.205 3.86603 110.542 3.33913C110.556 3.31653 110.585 3.3087 110.609 3.32174C110.97 3.52781 111.155 4.61378 110.902 4.93461C110.875 4.97113 110.822 4.97721 110.786 4.94852C110.768 4.93461 110.756 4.91374 110.755 4.89027C110.733 4.64769 110.678 4.42771 110.591 4.2286C110.582 4.20773 110.557 4.19817 110.536 4.20686C110.527 4.21121 110.519 4.21904 110.515 4.2286Z" fill="black"/>
<path d="M113.681 4.58336C113.724 4.57553 113.734 4.55293 113.712 4.51554C113.7 4.49554 113.683 4.47989 113.662 4.46946C113.618 4.44685 113.571 4.43816 113.522 4.44337C113.368 4.45989 113.216 4.49815 113.065 4.55988C113.033 4.57292 112.996 4.55727 112.983 4.5251C112.979 4.51467 112.978 4.50337 112.979 4.49293C113.029 4.08776 113.362 4.0069 113.715 4.06081C114.012 4.10515 114.327 4.15993 114.662 4.22514C114.685 4.22948 114.7 4.25209 114.696 4.2747C114.695 4.28078 114.692 4.286 114.689 4.29122C114.286 4.85985 113.621 4.90854 112.993 4.80507C112.963 4.80073 112.94 4.77899 112.933 4.7503C112.917 4.68682 112.942 4.65465 113.007 4.65292C113.243 4.64683 113.468 4.62335 113.681 4.58336Z" fill="#020202"/>
<path d="M109.424 5.09672C109.421 5.07672 109.402 5.06281 109.382 5.06628C109.374 5.06802 109.366 5.0715 109.36 5.07759C109.16 5.28365 109.138 5.69057 109.16 5.97227C109.163 6.00792 109.15 6.03488 109.12 6.05313C109.079 6.07922 109.026 6.06705 109 6.02618L108.997 6.02009C108.568 5.20627 109.035 4.72111 109.537 4.15856C109.557 4.13682 109.591 4.13421 109.614 4.15421C109.906 4.4107 109.877 4.98282 109.84 5.37756C109.819 5.60188 109.745 5.78968 109.619 5.94184C109.594 5.9714 109.553 5.98097 109.518 5.96619C109.469 5.94532 109.445 5.91315 109.45 5.86968C109.476 5.59927 109.467 5.34104 109.424 5.09672Z" fill="#010101"/>
<path d="M96.056 14.221C93.5229 13.9698 91.0933 12.9586 88.8071 11.7109C87.4849 10.9901 86.1714 10.2206 84.8675 9.40417C84.798 9.35982 84.8023 9.35113 84.8805 9.37634C86.2201 9.80499 87.5214 10.3336 88.7845 10.9623C89.4277 11.2822 90.0927 11.6213 90.7786 11.9804C92.6597 12.9646 94.6425 13.4802 96.7271 13.5263C98.8124 13.5715 100.913 13.4924 102.958 13.0516C105.81 12.4369 108.554 11.4066 111.192 9.9615C113.642 8.61903 115.95 6.89314 117.577 4.6586C117.604 4.62295 117.614 4.62729 117.609 4.67164C117.609 4.67859 117.609 4.68555 117.61 4.69251C117.611 4.69859 117.61 4.70468 117.607 4.70989C116.746 6.55317 115.071 7.99475 113.499 9.20419C111.899 10.4362 110.18 11.4639 108.342 12.2882C105.258 13.6707 102.002 14.3662 98.5725 14.3758C97.7293 14.3775 96.8905 14.3036 96.056 14.221Z" fill="black"/>
<path d="M107.918 5.87287C107.918 5.85375 107.903 5.8381 107.884 5.83723C107.877 5.83723 107.87 5.83896 107.865 5.84331C107.57 6.04068 107.482 6.45542 107.402 6.7893C107.385 6.85798 107.344 6.88494 107.275 6.87016C107.248 6.86407 107.231 6.84842 107.224 6.82147C107.05 6.16762 107.217 5.6642 107.728 5.3112C107.937 5.16599 108.135 5.02166 108.323 4.8782C108.344 4.86168 108.375 4.86603 108.391 4.88776C108.394 4.89037 108.395 4.89385 108.396 4.89646C108.453 5.01732 108.483 5.14165 108.488 5.26859C108.5 5.68159 108.366 6.55541 107.965 6.80843C107.754 6.94145 107.689 6.89015 107.769 6.65366C107.865 6.36934 107.916 6.1085 107.918 5.87287Z" fill="black"/>
<path d="M112.757 5.98427C112.808 5.9921 112.819 5.97471 112.79 5.93123C112.762 5.88689 112.726 5.8495 112.684 5.81994C112.636 5.7869 112.579 5.76864 112.52 5.76777C112.352 5.7669 112.178 5.78864 111.999 5.83385C111.95 5.84602 111.9 5.81646 111.887 5.7669C111.882 5.74777 111.884 5.72778 111.892 5.70952C112.103 5.19218 112.533 5.20609 112.989 5.38434C113.326 5.51649 113.65 5.62953 113.96 5.7243C113.982 5.73125 113.994 5.75473 113.987 5.77647C113.986 5.78255 113.982 5.78777 113.978 5.79299C113.403 6.3964 112.562 6.37379 111.823 6.13382C111.774 6.11817 111.748 6.066 111.764 6.01818C111.771 5.99557 111.786 5.97644 111.807 5.96514C111.836 5.94949 111.867 5.94167 111.902 5.9408C112.244 5.93297 112.528 5.94775 112.757 5.98427Z" fill="black"/>
<path d="M95.6648 12.5979C93.9793 12.2475 92.2642 11.645 90.6065 10.8685C89.3747 10.2912 88.1325 9.70518 86.8799 9.11046C85.5482 8.47923 83.9556 7.87929 82.4848 7.63845C81.2809 7.44108 80.1117 7.45586 78.979 7.68366C77.8533 7.91059 76.7624 8.3262 75.7053 8.93222C75.5689 9.01047 75.5532 8.99135 75.6584 8.87397C77.0736 7.29762 78.8643 6.51944 81.0305 6.53944C82.5613 6.55335 84.0713 6.89766 85.5525 7.3863C88.7958 8.45488 92.0495 10.1147 95.2293 11.1172C96.2942 11.4528 97.3547 11.665 98.4108 11.7545C98.6829 11.7771 98.9489 11.7823 99.2088 11.7702C100.356 11.7145 101.436 11.5711 102.447 11.3389C103.075 11.1955 103.784 11.0033 104.575 10.7625C105.462 10.4929 106.329 10.2295 107.173 9.97211C107.291 9.93646 107.297 9.95124 107.194 10.0173C105.123 11.3389 102.752 12.3092 100.362 12.6996C98.822 12.95 97.2095 12.9196 95.6648 12.5979Z" fill="black"/>
<path d="M111.498 7.35945C111.545 7.36728 111.558 7.34989 111.536 7.30729C111.518 7.27164 111.494 7.24208 111.466 7.21686C111.427 7.18295 111.379 7.16121 111.327 7.15513C111.139 7.13165 110.949 7.14991 110.757 7.2099C110.703 7.22729 110.646 7.19773 110.629 7.14383C110.621 7.11948 110.622 7.09253 110.633 7.06905C110.859 6.57606 111.27 6.5891 111.724 6.75865C112.058 6.88385 112.377 6.99254 112.678 7.0847C112.712 7.09514 112.73 7.12991 112.721 7.16382C112.718 7.17339 112.713 7.18208 112.706 7.18904C112.426 7.48205 112.085 7.63681 111.683 7.65333C111.435 7.66377 110.709 7.64551 110.544 7.44292C110.518 7.41162 110.522 7.36554 110.554 7.33946C110.566 7.32989 110.58 7.32381 110.595 7.32294C110.908 7.29859 111.209 7.31076 111.498 7.35945Z" fill="black"/>
<path d="M109.796 8.80363C109.9 8.81841 109.917 8.78624 109.847 8.70712C109.57 8.39324 109.143 8.59495 108.793 8.56713C108.733 8.56191 108.688 8.50975 108.693 8.44888C108.694 8.43323 108.699 8.41758 108.707 8.40454C108.982 7.91503 109.418 7.78287 109.93 7.99241C110.315 8.14979 110.703 8.30716 111.095 8.4628C111.174 8.49497 111.26 8.51844 111.355 8.53496C111.388 8.54018 111.41 8.57148 111.405 8.60452C111.403 8.61669 111.397 8.62799 111.388 8.63669C110.967 9.06708 110.398 9.25662 109.799 9.20967C109.337 9.17402 108.937 9.08186 108.6 8.93492C108.554 8.91492 108.531 8.86362 108.546 8.8158C108.567 8.74363 108.614 8.70799 108.684 8.71059C109.093 8.72451 109.465 8.75581 109.796 8.80363Z" fill="black"/>
<path d="M5.36167 13.7743C5.3608 13.7439 5.34429 13.7161 5.31386 13.6909C5.29387 13.6735 5.26518 13.6743 5.24606 13.6926C5.22693 13.71 5.20694 13.7117 5.18695 13.6978C5.16869 13.6848 5.14783 13.6796 5.12523 13.6804C4.98006 13.6856 4.82446 13.723 4.67929 13.7013C4.45589 13.6691 4.23074 13.6456 4.00212 13.6317C3.99517 13.6317 3.98908 13.6335 3.983 13.6387C3.97691 13.6439 3.96996 13.6465 3.96214 13.6456C3.6831 13.6204 3.41014 13.5961 3.14502 13.5726C2.92161 13.5526 2.6956 13.5196 2.46872 13.4735C2.23227 13.4257 2.008 13.4109 1.79503 13.43C1.78112 13.4309 1.76808 13.4291 1.75591 13.4231C1.74374 13.417 1.73505 13.4083 1.72896 13.397C1.71766 13.3735 1.69854 13.3622 1.67159 13.3648L1.4195 13.3857C1.38908 13.3883 1.36387 13.4022 1.34561 13.4274C1.32214 13.4596 1.29259 13.4665 1.25695 13.4491C1.23 13.4361 1.20218 13.4326 1.17349 13.437L0.994424 13.4665C0.963999 13.4709 0.935313 13.4648 0.910104 13.4474C0.885764 13.4309 0.862293 13.4335 0.839692 13.4561C0.821437 13.4744 0.798836 13.4813 0.772758 13.4752C0.636281 13.4448 0.447648 13.4978 0.345074 13.3961C0.320734 13.3718 0.281616 13.3709 0.256407 13.3944C0.234675 13.4135 0.212944 13.417 0.191212 13.4057C0.128624 13.3735 0.0990683 13.3926 0.102545 13.4639C0.102545 13.4752 0.0938526 13.4778 0.0755978 13.47C0.0495195 13.4587 0.0373496 13.4674 0.0382189 13.4961C0.0408267 13.5552 0.0277875 13.583 0.000839959 13.5804C-0.00176787 12.9466 0.00083996 11.598 0.00605562 9.53305C0.00779418 9.12613 0.2651 9.09831 0.61455 9.09918C7.70003 9.1044 12.6905 9.10353 15.5844 9.0957C15.8843 9.0957 16.0364 9.22265 16.0407 9.4774C16.0573 10.6521 16.0625 11.8198 16.0564 12.9814C16.0546 13.257 16.0851 13.6909 15.6713 13.6926C12.4924 13.7039 9.09522 13.7074 5.47902 13.7039C5.4486 13.7039 5.40948 13.7274 5.36167 13.7743Z" fill="#F1A809"/>
<path d="M87.3119 19.2329C87.3189 19.1825 87.3145 19.1425 87.2998 19.1138C87.2876 19.0895 87.2702 19.086 87.2485 19.1025C87.2389 19.1094 87.2363 19.1173 87.2389 19.1268C87.2546 19.1729 87.2363 19.1947 87.1833 19.1912C86.7617 19.1642 86.3853 19.1242 86.0541 19.0721C85.9567 19.0564 85.8628 19.0477 85.7724 19.0468C85.6864 19.0468 85.6003 19.0312 85.5143 19.0008C85.4108 18.9651 85.3048 18.9512 85.1961 18.959C85.0666 18.9686 84.964 18.9677 84.8884 18.959C84.439 18.9025 83.96 18.8808 83.4532 18.8938C83.4402 18.8938 83.4271 18.8973 83.4141 18.9034C83.4097 18.9051 83.408 18.9086 83.4071 18.9129C83.4002 18.9477 83.3767 18.9582 83.3376 18.9434C83.2289 18.9043 83.1211 18.8999 83.0133 18.9303C82.9864 18.9382 82.9603 18.9382 82.9342 18.9303C82.8186 18.8947 82.6978 18.8877 82.5718 18.9086C82.4388 18.9303 82.3049 18.9277 82.1693 18.8999C81.9902 18.8634 81.7938 18.866 81.5808 18.9069C81.5521 18.9121 81.5225 18.9025 81.5025 18.8808C81.4652 18.8399 81.4182 18.8295 81.3617 18.8495C81.3504 18.8538 81.3374 18.8547 81.3235 18.853C81.3139 18.8521 81.3096 18.846 81.3104 18.8356C81.3157 18.7904 81.3017 18.7843 81.2696 18.8164C81.2478 18.8382 81.2279 18.8608 81.2087 18.8825C81.1896 18.9043 81.1661 18.9121 81.1383 18.9051C81.1148 18.8999 81.094 18.9051 81.074 18.9208C81.0531 18.9373 81.0305 18.9512 81.0053 18.9616C80.8654 19.0199 80.7367 19.026 80.6194 18.9808C82.018 18.5408 82.6761 17.3775 82.4874 15.9724C82.3501 14.9447 81.6834 14.2195 80.7132 13.8657C80.3855 13.7466 79.9066 13.6874 79.2763 13.69C78.2323 13.6944 77.1892 13.6996 76.1469 13.7048C76.0869 13.7048 76.0383 13.7544 76.0383 13.8144L76.0426 18.9321C75.9131 18.7095 75.6958 18.6347 75.3889 18.7069C75.3628 18.713 75.3376 18.7104 75.3124 18.6999C75.2768 18.6843 75.2385 18.6808 75.1985 18.6904C75.1681 18.6973 75.1386 18.6964 75.109 18.6878C74.983 18.6486 74.8508 18.6391 74.7135 18.6582C74.6848 18.6625 74.6587 18.6556 74.6335 18.6391C74.6187 18.6295 74.6014 18.6243 74.584 18.6243C74.3458 18.6243 74.1111 18.6043 73.8799 18.5634C73.8008 18.5495 73.7216 18.5556 73.6425 18.5825C73.5773 18.6043 73.5104 18.613 73.4409 18.6086C73.2296 18.5939 73.028 18.5878 72.8367 18.5912C72.7646 18.5921 72.7029 18.5756 72.6498 18.5399C72.629 18.526 72.6064 18.5226 72.5812 18.5295C72.4499 18.5669 72.3334 18.5512 72.2334 18.4808C72.21 18.4643 72.1848 18.4565 72.1569 18.4565C72.0796 18.4565 72.0031 18.4452 71.9292 18.4234C71.8597 18.4034 71.7866 18.3939 71.711 18.3965C71.498 18.4017 71.2885 18.4 71.0825 18.3921C71.0495 18.3913 71.0199 18.38 70.9939 18.3591C70.9704 18.3408 70.9443 18.3313 70.9156 18.3295C70.8939 18.3278 70.8835 18.3382 70.8843 18.36C70.8843 18.3721 70.88 18.3756 70.8687 18.3713C70.8591 18.3669 70.853 18.3582 70.8522 18.3478C70.8522 18.3391 70.8469 18.333 70.8374 18.3287C70.8278 18.3252 70.82 18.3269 70.8122 18.333C70.7957 18.3478 70.7896 18.3652 70.7948 18.386C70.7974 18.3939 70.7948 18.3956 70.7878 18.3913C70.7852 18.3895 70.7826 18.3869 70.78 18.3843C70.7591 18.3504 70.7409 18.3539 70.7261 18.3956C70.7087 18.4426 70.6966 18.5026 70.6896 18.5747C70.6879 15.5464 70.6905 12.518 70.6974 9.49136C70.6974 9.29486 70.7783 9.17314 70.94 9.12705C71.0191 9.10532 71.1451 9.09488 71.3198 9.09575C72.6568 9.10706 74.0355 9.1088 75.4559 9.10097C77.5152 9.09141 79.2755 9.09749 80.7358 9.11923C84.0252 9.16792 86.8469 11.0434 87.644 14.3421C88.016 15.8802 87.9465 17.7374 87.3119 19.2338V19.2329Z" fill="black"/>
<path d="M58.4146 20.6375C58.4267 20.4749 58.4059 20.3323 58.3528 20.2097C58.3415 20.1828 58.3224 20.1758 58.2963 20.1888C58.1651 20.2549 58.0234 20.2654 57.873 20.2193C57.8043 20.1984 57.6983 20.2401 57.6105 20.2323C57.1072 20.1888 56.5482 20.1602 55.9328 20.1454C55.8928 20.1445 55.8537 20.1506 55.8146 20.1636C55.7485 20.1871 55.692 20.1801 55.6459 20.1436C55.6207 20.1228 55.599 20.1262 55.5816 20.1541C55.5668 20.1775 55.5486 20.181 55.5251 20.1645C55.4964 20.1436 55.4686 20.1445 55.4408 20.1662C55.4103 20.1897 55.3773 20.1958 55.3417 20.1828C55.3078 20.1715 55.2747 20.1706 55.2408 20.1802C55.1487 20.208 55.0383 20.208 54.9496 20.168C54.8923 20.141 54.8358 20.1428 54.781 20.1732C54.7558 20.1871 54.728 20.1941 54.6993 20.1915C54.5167 20.1784 54.3542 20.1801 54.2125 20.1967C54.149 20.2036 54.0925 20.1958 54.043 20.1723C54.0186 20.161 53.9917 20.1575 53.9665 20.1628C53.8343 20.1897 53.704 20.1741 53.5753 20.1175C53.5597 20.1106 53.544 20.1106 53.5284 20.1175C53.4284 20.1602 53.3806 20.121 53.3858 19.9984C53.3867 19.9889 53.3797 19.9802 53.3702 19.9793C53.3606 19.9784 53.3519 19.9854 53.351 19.995L53.2893 20.4862L53.2763 19.4994C53.2745 19.3924 53.2206 19.3394 53.1137 19.3394C52.4835 19.3402 51.8889 19.3385 51.33 19.3324C51.0301 19.3298 50.8805 19.1707 50.8814 18.8559C50.8849 17.7387 50.8892 16.5762 50.8936 15.3685C50.8944 15.1737 51.0527 15.0164 51.2474 15.0155L53.1737 15.0085C53.225 15.0085 53.2667 14.9677 53.2684 14.9164C53.2763 14.7103 53.2806 14.5086 53.2797 14.313C53.2771 13.0618 53.2797 11.9471 53.2893 10.9681C53.2919 10.6986 53.4293 10.5638 53.7022 10.5638C55.1131 10.5621 56.4969 10.5621 57.853 10.5638C58.3485 10.5647 58.4041 10.6621 58.4067 11.1411C58.4146 12.3714 58.418 13.6078 58.4189 14.8494C58.4189 14.9598 58.4737 15.0146 58.5841 15.0138C59.5507 15.0033 60.5391 15.0068 61.5483 15.0251C61.7769 15.0285 61.896 15.1937 61.9004 15.4085C61.9238 16.6562 61.9238 17.8361 61.9012 18.9498C61.8951 19.2081 61.6883 19.3333 61.4414 19.3342C60.4652 19.3376 59.4864 19.3376 58.505 19.3342C58.4589 19.3342 58.4224 19.3707 58.4215 19.4168L58.4146 20.6384V20.6375Z" fill="#F1A809"/>
<path d="M5.36175 13.7741L5.37739 17.9076C5.37739 17.9528 5.41477 17.9885 5.45998 17.9885L12.0847 17.998C12.2629 17.998 12.4072 18.1424 12.4081 18.3206C12.4133 19.7135 12.4151 20.996 12.4125 22.168C12.4125 22.4228 12.2734 22.5497 11.9978 22.5506C9.79332 22.5549 7.62534 22.5549 5.49388 22.5506C5.4226 22.5506 5.36522 22.608 5.36522 22.6784V25.8772C5.36001 25.7763 5.35653 25.6763 5.35392 25.5763C5.35392 25.565 5.34784 25.559 5.33654 25.5598H5.33567C5.32263 25.5598 5.31741 25.5668 5.31828 25.5798C5.32958 25.7224 5.3122 25.8763 5.26786 26.0406C5.25656 26.0815 5.25048 26.0806 5.24787 26.0389C5.24787 26.0224 5.24005 26.0093 5.22614 26.0015C5.20354 25.9893 5.18007 25.9833 5.15486 25.9824C5.06619 25.9824 4.98274 25.9728 4.90364 25.9563C4.89581 25.9546 4.88712 25.9563 4.8793 25.9598C4.87234 25.9624 4.868 25.9685 4.86713 25.9763C4.86452 26.005 4.85322 26.0085 4.8341 25.9867C4.7915 25.9389 4.74108 25.9293 4.68197 25.958C4.66372 25.9667 4.64981 25.9624 4.63938 25.9459C4.6246 25.9215 4.60461 25.918 4.58027 25.9354C4.5707 25.9433 4.56288 25.9528 4.55853 25.9641C4.55506 25.972 4.55245 25.9806 4.54984 25.9885C4.53854 26.0215 4.51768 26.0293 4.48725 26.0128C4.45422 25.9937 4.43249 25.9667 4.42293 25.9328C4.41423 25.9024 4.39511 25.8833 4.36556 25.8754C3.99785 25.7781 3.6823 25.8233 3.31808 25.8154C3.17986 25.8128 3.04165 25.8102 2.90343 25.8076C2.79564 25.8059 2.71393 25.7494 2.62526 25.6946C2.59658 25.6763 2.56528 25.6694 2.53138 25.672C2.3158 25.6902 2.10978 25.6955 1.91419 25.6885C1.72208 25.6815 1.49086 25.6746 1.30744 25.7294C1.2379 25.7494 1.15618 25.7633 1.06143 25.7702C0.768487 25.792 0.523351 25.7894 0.327764 25.7607C0.282561 25.7537 0.24779 25.7555 0.22432 25.7668C0.202588 25.7772 0.181725 25.7755 0.16347 25.7607C0.145216 25.7459 0.122614 25.7441 0.0974053 25.7555C0.0800197 25.7633 0.0678499 25.7798 0.0669806 25.7981L0.00613119 27.0075L0.000915527 13.5803C0.0278631 13.5829 0.0409023 13.555 0.0382944 13.4959C0.0374252 13.4672 0.049595 13.4585 0.0756733 13.4698C0.0939282 13.4777 0.10349 13.475 0.102621 13.4637C0.0991438 13.3924 0.128699 13.3733 0.191287 13.4055C0.213019 13.4168 0.234751 13.4133 0.256483 13.3942C0.281692 13.3707 0.320809 13.3716 0.345149 13.3959C0.447724 13.4977 0.636357 13.4446 0.772833 13.475C0.798912 13.4811 0.821513 13.475 0.839768 13.4559C0.862369 13.4333 0.885839 13.4307 0.910179 13.4472C0.935388 13.4646 0.964074 13.4707 0.994499 13.4664L1.17357 13.4368C1.20226 13.4324 1.23007 13.4368 1.25702 13.449C1.29266 13.4664 1.32222 13.4594 1.34569 13.4272C1.36394 13.402 1.38915 13.3881 1.41958 13.3855L1.67167 13.3646C1.69861 13.362 1.71774 13.3733 1.72904 13.3968C1.73512 13.4081 1.74382 13.4168 1.75599 13.4229C1.76816 13.429 1.78119 13.4307 1.7951 13.4298C2.00808 13.4107 2.23235 13.4255 2.46879 13.4733C2.69567 13.5194 2.92169 13.5524 3.14509 13.5724C3.41022 13.5959 3.68317 13.6203 3.96221 13.6455C3.97003 13.6455 3.97699 13.6437 3.98307 13.6385C3.98916 13.6333 3.99524 13.6307 4.0022 13.6316C4.23082 13.6455 4.45596 13.6689 4.67936 13.7011C4.82453 13.7228 4.98013 13.6855 5.1253 13.6802C5.1479 13.6794 5.16877 13.6846 5.18702 13.6976C5.20702 13.7115 5.22701 13.7098 5.24613 13.6924C5.26526 13.6742 5.29394 13.6733 5.31394 13.6907C5.34436 13.7159 5.36088 13.7437 5.36175 13.7741Z" fill="#F1A809"/>
<path d="M122.26 21.0462C122.03 20.9758 121.778 20.954 121.505 20.981C121.388 20.9932 121.275 20.9906 121.164 20.9723C121.048 20.954 120.931 20.9471 120.814 20.9523C120.656 20.9601 120.489 20.9566 120.314 20.9419C120.292 20.9401 120.277 20.9288 120.269 20.9088C120.264 20.8958 120.256 20.8836 120.246 20.8723C120.233 20.8575 120.216 20.848 120.196 20.8436C120.041 20.8132 119.885 20.8201 119.728 20.8654C119.699 20.8732 119.669 20.8732 119.639 20.8654C119.442 20.8071 119.243 20.8106 119.043 20.8758C118.927 20.914 118.813 20.8671 118.69 20.8758C118.394 20.8958 118.101 20.9001 117.81 20.8888C117.738 20.8862 117.665 20.894 117.591 20.9132C117.49 20.9401 117.395 20.9332 117.305 20.8932C117.289 20.8853 117.271 20.8819 117.252 20.8845C117.135 20.8967 117.04 20.8575 116.968 20.7671C116.959 20.7549 116.945 20.7462 116.93 20.7428C116.908 20.7384 116.897 20.741 116.898 20.7523C116.901 20.7914 116.882 20.8062 116.84 20.7958C116.806 20.7871 116.785 20.7914 116.777 20.8097C116.482 20.0028 115.9 19.5325 115.031 19.3994C113.883 19.2238 112.877 19.562 112.384 20.6636C112.373 20.628 112.342 20.6176 112.291 20.6323C112.238 20.6489 112.191 20.6428 112.15 20.6158C112.142 20.6106 112.134 20.6097 112.126 20.6141C112.12 20.6176 112.117 20.6236 112.117 20.6332C112.117 20.6393 112.115 20.6428 112.109 20.6428C111.851 20.6575 111.637 20.6141 111.469 20.5123C111.34 20.435 111.201 20.3784 111.054 20.3411C110.71 20.2541 110.42 20.2193 110.183 20.2359C110.095 20.2419 110.005 20.2428 109.914 20.2385C109.817 20.2332 109.721 20.2306 109.624 20.2306C109.425 20.2306 109.246 20.2428 109.089 20.2698C108.96 20.2915 108.834 20.2915 108.71 20.268C108.69 20.2645 108.67 20.2654 108.65 20.2698C108.629 20.2759 108.612 20.2863 108.599 20.3019C108.577 20.3271 108.55 20.3402 108.517 20.3419L107.345 20.3871C107.33 20.3871 107.316 20.3819 107.306 20.3706C107.289 20.3524 107.27 20.348 107.248 20.3576C107.211 20.3758 107.175 20.3715 107.141 20.3463L107.034 20.2654C107.355 19.1499 107.842 18.2056 108.495 17.4309C109.824 15.8546 111.54 14.9677 113.639 14.7704C115.164 14.6278 116.67 14.8338 118.028 15.5007C119.373 16.1606 120.438 17.1553 121.227 18.4856C121.712 19.3038 122.056 20.1576 122.26 21.0471V21.0462Z" fill="black"/>
<path d="M32.4606 21.3345C32.4327 21.2753 32.424 21.218 32.4353 21.1632C32.4371 21.1554 32.4345 21.1519 32.4266 21.1519C32.424 21.1519 32.4206 21.1519 32.4171 21.1519C32.391 21.1475 32.3849 21.1562 32.3988 21.1788C32.4032 21.1858 32.4075 21.1927 32.4119 21.1988C32.4153 21.204 32.4145 21.2093 32.4101 21.2136C32.2928 21.3162 32.1633 21.3432 32.0198 21.2945C31.9798 21.2814 31.939 21.2788 31.8964 21.2866C31.8781 21.291 31.8651 21.284 31.859 21.2658L31.8477 21.2362C31.8381 21.2093 31.8225 21.204 31.799 21.2206C31.6408 21.331 31.513 21.2701 31.3548 21.2214C31.1592 21.1632 30.8706 21.1971 30.6655 21.1945C30.5733 21.1936 30.5273 21.1336 30.436 21.1267C30.1474 21.1049 29.8484 21.111 29.5389 21.1449C29.3538 21.1658 29.1756 21.1041 28.9991 21.1214C28.8748 21.1345 28.754 21.1397 28.6366 21.1371C28.4384 21.1336 28.2454 21.1319 28.0568 21.1319C27.9664 21.1319 27.9003 21.1684 27.8125 21.1701C27.7951 21.1701 27.7873 21.1797 27.7882 21.1971C27.7882 21.2049 27.7873 21.2127 27.7847 21.2206C27.7734 21.258 27.7552 21.2614 27.7299 21.2319C27.7091 21.2075 27.683 21.1954 27.6526 21.1962C27.6169 21.1971 27.5822 21.2101 27.5544 21.2336C27.4892 21.2866 27.437 21.2797 27.3987 21.211C27.3909 21.198 27.3796 21.1919 27.3648 21.1936C27.297 21.2023 27.2623 21.1727 27.2614 21.1041C27.2614 21.0841 27.2449 21.0675 27.2249 21.0675C27.2214 21.0675 27.2179 21.0675 27.2145 21.0693C27.1884 21.0762 27.1762 21.0928 27.1771 21.1197C27.1771 21.1484 27.164 21.1632 27.1354 21.1632C27.1215 21.1632 27.1058 21.1562 27.0884 21.1397C27.0354 20.2381 26.5755 19.6755 25.708 19.4521C24.8935 19.2425 23.4157 19.3356 22.9168 20.1955C22.7751 20.4389 22.6968 20.7484 22.3343 20.7032C20.6679 20.4937 19.0902 20.2868 17.6011 20.0833C17.2247 20.0311 17.3177 19.692 17.3699 19.406C17.8011 17.041 20.0221 15.6047 22.197 15.0691C25.3742 14.2865 29.8032 14.9117 31.7364 17.8922C32.145 18.5217 32.3806 19.1843 32.4423 19.8807C32.4762 20.2511 32.4823 20.7363 32.4606 21.3353V21.3345Z" fill="#F1A809"/>
<path d="M40.0971 20.4404C40.0954 20.4526 40.0884 20.4543 40.0771 20.4456C40.065 20.4361 40.0589 20.4396 40.0598 20.4552C40.0598 20.463 40.0563 20.4691 40.0467 20.4735C40.0267 20.4822 40.0146 20.4761 40.0093 20.4552C40.0015 20.4213 39.9815 20.4109 39.9502 20.4257C39.9302 20.4343 39.9189 20.4283 39.9163 20.4065C39.9128 20.3796 39.8989 20.3578 39.8737 20.3413C39.8581 20.3317 39.8416 20.3257 39.8242 20.3239C39.7572 20.317 39.6894 20.3022 39.6225 20.2796C39.6095 20.2752 39.5973 20.2761 39.5851 20.2831C39.5443 20.3083 39.5017 20.3161 39.4573 20.3065C39.1913 20.2509 38.9106 20.2222 38.615 20.2213C38.263 20.2213 37.9309 20.2083 37.6197 20.1848C37.3832 20.1665 37.1399 20.1622 36.8895 20.1718M36.7947 20.1752L36.1332 20.137C36.1254 20.137 36.1219 20.1396 36.1228 20.1474C36.1237 20.157 36.1211 20.1639 36.1141 20.1674C36.1028 20.1735 36.0906 20.1761 36.0776 20.1735C35.8785 20.1344 35.6716 20.1013 35.4561 20.0735C35.3987 20.0657 35.3431 20.05 35.2892 20.0257C35.2631 20.0144 35.2361 20.01 35.2074 20.0135C35.1396 20.0222 35.0953 20.0544 35.0744 20.1092C35.0666 20.13 35.051 20.1387 35.0292 20.1352C34.9997 20.1309 34.9797 20.1431 34.9693 20.1718C34.9606 20.1952 34.951 20.1952 34.9397 20.1718C34.9354 20.1631 34.9345 20.1535 34.9371 20.1439C34.9406 20.1257 34.9371 20.1239 34.9258 20.1387C34.9206 20.1457 34.918 20.1535 34.9189 20.1613C34.9232 20.2544 34.9162 20.35 34.8989 20.4465C34.7224 17.2938 37.159 15.4079 39.998 14.9289C43.0283 14.4176 47.1296 14.961 48.716 18.0137C49.0646 18.685 49.2471 19.4414 49.2619 20.2839C49.2663 20.5656 49.1176 20.7065 48.816 20.7074C47.5529 20.71 46.1673 20.7108 44.6608 20.7091C44.2384 20.7091 44.2731 20.3587 44.2062 20.0683C43.9724 19.0606 42.5998 18.8832 41.7618 18.9293C40.9473 18.9736 39.7685 19.3658 40.0971 20.4396L36.7947 20.1744V20.1752Z" fill="#F1A809"/>
<path d="M104.278 21.5494C104.242 21.5694 104.228 21.6189 104.236 21.6972C104.239 21.7293 104.233 21.7311 104.218 21.7024C104.217 21.6989 104.217 21.6954 104.219 21.6928C104.245 21.6572 104.236 21.6311 104.195 21.6146C104.177 21.6076 104.165 21.5937 104.159 21.5737C104.152 21.545 104.134 21.5285 104.105 21.5233C103.944 21.4946 103.795 21.4494 103.626 21.4607C103.489 21.4702 103.376 21.4702 103.287 21.4607C102.847 21.4181 102.451 21.3972 102.099 21.3998C101.965 21.3998 101.828 21.4016 101.687 21.4042C101.339 21.4094 100.983 21.4042 100.622 21.3859C100.408 21.3755 100.219 21.3798 100.055 21.3989C99.8712 21.4207 99.6843 21.4459 99.4948 21.4746C99.4227 21.4859 99.2818 21.4824 99.0723 21.4642C99.0506 21.4624 99.0428 21.4511 99.0471 21.4294C99.0506 21.4155 99.0463 21.4024 99.0341 21.3911C99.0071 21.365 98.9915 21.3703 98.9854 21.4076L98.9115 21.9232C98.915 21.4989 98.9463 21.0329 98.8281 20.646C98.6281 19.9895 98.1535 19.5835 97.4042 19.4296C96.3993 19.2227 95.0658 19.3966 94.6025 20.4408C94.5217 20.6216 94.3504 20.7295 94.1531 20.7051C92.6319 20.5147 91.0741 20.3104 89.4807 20.093C89.2226 20.0582 89.1104 19.913 89.1443 19.6574C89.286 18.5853 89.7693 17.6533 90.5925 16.8629C91.9408 15.5691 93.8045 14.9423 95.6856 14.7918C96.7879 14.704 97.898 14.7727 99.015 14.9979C99.1593 15.0266 99.447 15.1092 99.879 15.2448C101.376 15.7152 102.799 16.6551 103.632 18.0011C104.045 18.6679 104.258 19.4461 104.27 20.3356C104.279 20.9764 104.282 21.3807 104.278 21.5485V21.5494Z" fill="black"/>
<path d="M129.456 20.1921L129.417 20.1652C129.392 20.1469 129.374 20.1521 129.363 20.1826C129.35 20.22 129.324 20.2374 129.285 20.2356C129.181 20.2304 129.079 20.2 128.981 20.1443C128.954 20.1287 128.922 20.1235 128.891 20.1287C128.739 20.1556 128.604 20.1452 128.485 20.0991C128.404 20.0678 128.323 20.0539 128.238 20.0582C128.151 20.0626 128.065 20.0556 127.984 20.0374C127.896 20.0165 127.802 20.0104 127.702 20.0191C127.522 20.0339 127.353 20.04 127.194 20.0365C127.032 20.0322 126.875 20.0417 126.723 20.0635C126.528 20.0921 126.334 20.1208 126.14 20.1513C126.025 20.1687 125.91 20.1591 125.795 20.1235C125.672 20.0852 125.562 20.1078 125.463 20.1913C125.449 20.2026 125.433 20.2061 125.416 20.2C125.406 20.1974 125.403 20.1904 125.404 20.1808C125.407 20.1452 125.391 20.1287 125.355 20.1313C125.203 20.1443 125.022 20.1391 124.811 20.1165C124.793 20.1139 124.782 20.1217 124.779 20.14C124.777 20.1539 124.775 20.1539 124.773 20.14C124.77 20.1261 124.763 20.1148 124.753 20.1061C124.739 20.0948 124.72 20.0904 124.703 20.0939C124.662 20.1035 124.616 20.1 124.565 20.0835C124.553 20.08 124.551 20.0739 124.56 20.0643C124.567 20.0565 124.575 20.0565 124.583 20.0643C124.597 20.0782 124.611 20.0782 124.624 20.0643C124.632 20.0565 124.636 20.0461 124.637 20.0348C124.64 20.0078 124.627 19.9991 124.602 20.0078C124.577 20.0174 124.561 20.0095 124.555 19.9861C124.551 19.9713 124.555 19.9687 124.567 19.9782C124.57 19.98 124.572 19.9817 124.574 19.9835C124.587 19.993 124.6 19.9948 124.613 19.9869C124.623 19.9809 124.63 19.9722 124.633 19.9591C124.638 19.9339 124.627 19.9217 124.602 19.9226C124.573 19.9226 124.547 19.9304 124.522 19.9435C124.492 19.9591 124.465 19.9556 124.44 19.9322C124.394 19.8913 124.358 19.8374 124.33 19.7722C124.53 16.9594 126.833 15.3753 129.437 14.9249C130.702 14.7058 131.995 14.6997 133.318 14.9066C136.206 15.3588 138.686 17.2516 138.683 20.3408C138.683 20.6112 138.443 20.713 138.213 20.7138C136.785 20.7182 135.409 20.7156 134.083 20.7069C133.83 20.7051 133.696 20.5808 133.677 20.3339C133.601 19.2609 132.499 18.9488 131.561 18.9245C130.786 18.9045 129.408 19.1218 129.456 20.193V20.1921Z" fill="black"/>
<path d="M76.0426 18.9312C76.0305 19.066 76.0687 19.133 76.1574 19.133C77.3361 19.133 78.5149 19.1321 79.6936 19.1295C79.9405 19.1295 80.2491 19.0791 80.6194 18.9799C80.7367 19.0252 80.8654 19.0191 81.0053 18.9608C81.0306 18.9504 81.0532 18.9365 81.074 18.9199C81.094 18.9043 81.1149 18.8991 81.1383 18.9043C81.1662 18.9113 81.1896 18.9043 81.2088 18.8817C81.2279 18.86 81.2479 18.8373 81.2696 18.8156C81.3018 18.7834 81.3157 18.7895 81.3105 18.8347C81.3096 18.8452 81.3139 18.8513 81.3235 18.8521C81.3374 18.8539 81.3504 18.8521 81.3617 18.8487C81.4182 18.8287 81.4652 18.8391 81.5026 18.88C81.5226 18.9017 81.5521 18.9113 81.5808 18.906C81.7938 18.8652 81.9902 18.8626 82.1693 18.8991C82.3049 18.9269 82.4388 18.9295 82.5718 18.9078C82.6978 18.8869 82.8187 18.8939 82.9343 18.9295C82.9603 18.9373 82.9864 18.9373 83.0134 18.9295C83.1212 18.8991 83.229 18.9034 83.3376 18.9426C83.3767 18.9573 83.4002 18.9469 83.4072 18.9121C83.4072 18.9078 83.4098 18.9043 83.4141 18.9026C83.4271 18.8965 83.4402 18.893 83.4532 18.893C83.96 18.88 84.439 18.9017 84.8884 18.9582C84.964 18.9678 85.0666 18.9686 85.1961 18.9582C85.3048 18.9504 85.4108 18.9643 85.5143 18.9999C85.6003 19.0304 85.6864 19.0452 85.7725 19.046C85.8629 19.0469 85.9567 19.0556 86.0541 19.0712C86.3853 19.1234 86.7617 19.1634 87.1833 19.1904C87.2363 19.1938 87.2546 19.1721 87.2389 19.126C87.2363 19.1164 87.2389 19.1086 87.2485 19.1017C87.2702 19.0851 87.2876 19.0886 87.2998 19.113C87.3146 19.1417 87.3189 19.1817 87.3119 19.2321C86.4314 21.3119 84.6459 22.6465 82.4753 23.143C81.7486 23.309 81.0279 23.3942 80.3143 23.3986C79.0338 23.4055 77.656 23.4064 76.1817 23.4003C76.1052 23.4003 76.0435 23.4621 76.0426 23.5386C76.0426 23.5386 76.0426 23.5386 76.0426 23.5394L76.0409 28.1076C76.0209 28.0172 75.9887 28.0555 75.9461 28.2224C75.9401 28.2442 75.9375 28.2433 75.9375 28.2215C75.9375 28.2128 75.9348 28.205 75.9296 28.1989C75.9227 28.1885 75.9218 28.1772 75.9279 28.1659C75.9496 28.1242 75.9462 28.0824 75.9175 28.0398C75.901 28.0155 75.8783 28.0024 75.8497 28.0007C75.7314 27.9911 75.6167 27.985 75.5046 27.9824C75.395 27.9798 75.2898 27.9616 75.1881 27.9294C74.8969 27.8355 74.6744 27.7912 74.5205 27.7964C73.7747 27.8207 73.0358 27.8198 72.3048 27.7929C72.1952 27.7894 72.0909 27.7781 71.9918 27.7599C71.8762 27.7381 71.7606 27.7277 71.645 27.7286C71.5459 27.7294 71.4389 27.7086 71.3233 27.6642C71.1912 27.6138 71.0617 27.6442 70.9296 27.599C70.9009 27.5894 70.8757 27.5938 70.8539 27.6138C70.8235 27.6407 70.807 27.6781 70.8026 27.7242C70.8026 27.732 70.7974 27.7372 70.7896 27.739C70.7818 27.7399 70.7748 27.7399 70.767 27.739C70.754 27.7372 70.7453 27.7251 70.747 27.7129C70.747 27.7103 70.7479 27.7086 70.7487 27.7059C70.7679 27.6651 70.7661 27.6251 70.7427 27.5868C70.7183 27.546 70.7018 27.5486 70.6922 27.5955L70.6827 27.6433L70.6896 18.573C70.6966 18.5009 70.7088 18.4409 70.7261 18.3939C70.7409 18.3522 70.7592 18.3487 70.78 18.3826C70.7826 18.3852 70.7853 18.3878 70.7879 18.3896C70.7948 18.3939 70.7974 18.3922 70.7948 18.3844C70.7896 18.3635 70.7948 18.3461 70.8122 18.3313C70.82 18.3252 70.8279 18.3235 70.8374 18.327C70.847 18.3313 70.8513 18.3374 70.8522 18.3461C70.8531 18.3565 70.8591 18.3652 70.8687 18.3696C70.88 18.3739 70.8852 18.3704 70.8844 18.3583C70.8835 18.3365 70.8939 18.3261 70.9156 18.3278C70.9443 18.3296 70.9704 18.3391 70.9939 18.3574C71.02 18.3783 71.0495 18.3896 71.0825 18.3904C71.2886 18.3983 71.4981 18.4 71.711 18.3948C71.7867 18.3922 71.8597 18.4017 71.9292 18.4217C72.0031 18.4435 72.0796 18.4539 72.157 18.4548C72.1848 18.4548 72.21 18.4626 72.2335 18.4791C72.3334 18.5496 72.4499 18.5652 72.5812 18.5278C72.6064 18.5209 72.629 18.5243 72.6499 18.5382C72.7029 18.5739 72.7646 18.5904 72.8367 18.5895C73.028 18.5861 73.2297 18.5922 73.4409 18.6069C73.5104 18.6113 73.5774 18.6026 73.6426 18.5809C73.7217 18.5539 73.8008 18.5478 73.8799 18.5617C74.1111 18.6026 74.3458 18.6235 74.584 18.6226C74.6014 18.6226 74.6188 18.6278 74.6335 18.6374C74.6588 18.6539 74.6848 18.6608 74.7135 18.6565C74.8509 18.6374 74.983 18.6469 75.109 18.6861C75.1386 18.6948 75.1681 18.6956 75.1986 18.6887C75.2386 18.6791 75.2768 18.6826 75.3124 18.6982C75.3377 18.7087 75.3629 18.7113 75.3889 18.7052C75.6958 18.633 75.9131 18.7078 76.0426 18.9304V18.9312Z" fill="black"/>
<path d="M124.33 19.7714C124.358 19.8366 124.394 19.8905 124.44 19.9314C124.465 19.9548 124.492 19.9583 124.522 19.9427C124.547 19.9296 124.574 19.9227 124.602 19.9218C124.627 19.9218 124.638 19.9331 124.633 19.9583C124.63 19.9714 124.623 19.98 124.613 19.9861C124.6 19.994 124.587 19.9922 124.574 19.9827C124.572 19.9809 124.57 19.9792 124.567 19.9774C124.555 19.9679 124.551 19.9705 124.555 19.9853C124.561 20.0087 124.577 20.0166 124.602 20.007C124.627 19.9983 124.64 20.007 124.637 20.034C124.637 20.0453 124.632 20.0557 124.624 20.0635C124.611 20.0783 124.597 20.0783 124.583 20.0635C124.575 20.0557 124.567 20.0557 124.56 20.0635C124.551 20.0731 124.553 20.0792 124.565 20.0826C124.616 20.0992 124.662 20.1026 124.703 20.0931C124.72 20.0896 124.739 20.0931 124.753 20.1053C124.763 20.1139 124.77 20.1253 124.773 20.1392C124.775 20.1531 124.777 20.1531 124.78 20.1392C124.782 20.1209 124.793 20.1131 124.811 20.1157C125.022 20.1383 125.203 20.1435 125.355 20.1305C125.391 20.1279 125.407 20.1444 125.404 20.18C125.403 20.1896 125.406 20.1965 125.416 20.1992C125.433 20.2052 125.449 20.2018 125.463 20.1905C125.562 20.107 125.672 20.0844 125.795 20.1226C125.91 20.1583 126.025 20.1679 126.14 20.1505C126.334 20.12 126.528 20.0913 126.723 20.0627C126.875 20.0409 127.032 20.0313 127.194 20.0357C127.353 20.0392 127.522 20.0331 127.702 20.0183C127.802 20.0096 127.896 20.0157 127.984 20.0366C128.065 20.0548 128.151 20.0618 128.238 20.0574C128.323 20.0531 128.404 20.067 128.485 20.0983C128.604 20.1444 128.739 20.1548 128.891 20.1279C128.922 20.1226 128.954 20.1279 128.981 20.1435C129.079 20.1992 129.181 20.2296 129.285 20.2348C129.324 20.2365 129.35 20.2192 129.363 20.1818C129.374 20.1513 129.392 20.1461 129.417 20.1644L129.456 20.1913C129.499 20.6391 129.882 20.8443 130.286 20.966C130.725 21.0973 131.103 21.1964 131.42 21.2634C132.287 21.446 133.177 21.6425 134.089 21.8538C135.561 22.1946 137.264 22.9484 138.199 24.1457C138.862 24.9952 139.043 25.982 138.991 27.0567L138.905 26.408C138.9 26.3672 138.879 26.3559 138.842 26.375C138.787 26.402 138.75 26.3863 138.729 26.3281C138.718 26.2968 138.7 26.2924 138.675 26.3141C138.634 26.3507 138.588 26.3541 138.538 26.3246C138.51 26.3081 138.479 26.3002 138.447 26.3028C138.194 26.3185 137.936 26.3185 137.672 26.302C137.633 26.2994 137.599 26.2907 137.568 26.2759C137.538 26.2611 137.507 26.255 137.474 26.2594C137.315 26.2776 137.157 26.2698 136.999 26.2376C136.871 26.2115 136.739 26.2029 136.602 26.2115C136.45 26.2211 136.301 26.2098 136.152 26.1794C136.046 26.1568 135.929 26.2133 135.818 26.2142C135.444 26.2194 135.07 26.2098 134.696 26.1863C134.51 26.175 134.127 26.1776 133.547 26.1942C133.533 26.1942 133.526 26.202 133.526 26.2159C133.526 26.2255 133.523 26.2307 133.514 26.2324C133.491 26.2368 133.468 26.2324 133.444 26.2194C133.367 26.1768 133.281 26.1698 133.186 26.2002C132.779 26.0237 132.399 25.9003 132.046 25.829C130.935 25.6047 129.838 25.409 128.683 25.0221C127.417 24.5969 126.145 23.9518 125.238 22.9693C124.463 22.1285 124.229 20.8782 124.33 19.7705V19.7714Z" fill="black"/>
<path d="M40.0971 20.44C40.1902 20.5991 40.2866 20.7078 40.3866 20.7652C40.8665 21.0399 41.5714 21.1756 42.0982 21.2869C42.9432 21.4651 43.7759 21.6486 44.5957 21.8373C46.0613 22.1755 47.725 22.8928 48.6917 24.0353C49.4349 24.9152 49.6331 25.9838 49.5601 27.1245L49.5462 26.7367C49.5453 26.7028 49.5279 26.6872 49.494 26.6898C49.3854 26.6959 49.2732 26.6976 49.1585 26.6967C49.0455 26.6959 48.9325 26.6846 48.8195 26.6637C48.4309 26.5924 48.0319 26.5524 47.6207 26.5437C47.4312 26.5394 47.26 26.4941 47.067 26.495C46.7628 26.4976 46.4646 26.4646 46.1604 26.4794C46.1325 26.4811 46.1047 26.4759 46.0786 26.4637C46.0013 26.4281 45.9204 26.4133 45.8361 26.4194C45.7622 26.4254 45.6883 26.4281 45.6127 26.4272C45.2989 26.4272 44.9833 26.4255 44.6652 26.4246C44.5878 26.4246 44.5122 26.4176 44.4392 26.4028C44.3418 26.3837 44.2532 26.4011 44.1732 26.455C44.1419 26.4767 44.1219 26.4689 44.1132 26.4324C44.0932 26.3463 44.0402 26.3107 43.9559 26.3246C43.5847 26.102 43.1944 25.9499 42.7867 25.8673C41.654 25.6377 40.7778 25.4447 40.1597 25.2891C38.6967 24.9204 37.2468 24.2796 36.1176 23.2762C35.2961 22.5459 34.9163 21.5216 34.8989 20.447C34.9163 20.3505 34.9232 20.2548 34.9189 20.1618C34.9189 20.154 34.9206 20.1461 34.9258 20.1392C34.9371 20.1244 34.9406 20.1261 34.9371 20.1444C34.9345 20.154 34.9354 20.1635 34.9397 20.1722C34.951 20.1948 34.9606 20.1948 34.9693 20.1722C34.9797 20.1435 34.9997 20.1314 35.0293 20.1357C35.051 20.1392 35.0666 20.1305 35.0745 20.1096C35.0953 20.0548 35.1397 20.0227 35.2075 20.014C35.2361 20.0105 35.2631 20.014 35.2892 20.0261C35.3431 20.0505 35.3987 20.0661 35.4561 20.074C35.6717 20.1018 35.8785 20.1348 36.0776 20.174C36.0906 20.1766 36.1028 20.174 36.1141 20.1679C36.1211 20.1644 36.1237 20.1574 36.1228 20.1479C36.1228 20.14 36.1254 20.1366 36.1332 20.1374L36.7948 20.1757M36.8895 20.1713C37.1399 20.1618 37.3833 20.1661 37.6197 20.1844C37.9309 20.2079 38.263 20.22 38.615 20.2209C38.9106 20.2218 39.1914 20.2505 39.4574 20.3061C39.5017 20.3157 39.5443 20.3079 39.5851 20.2826C39.5973 20.2757 39.6095 20.2748 39.6225 20.2792C39.6895 20.3018 39.7573 20.3165 39.8242 20.3235C39.8416 20.3252 39.8581 20.3313 39.8737 20.3409C39.8989 20.3574 39.9129 20.3792 39.9163 20.4061C39.9189 20.4278 39.9302 20.4339 39.9502 20.4252C39.9815 20.4105 40.0015 20.4209 40.0093 20.4548C40.0146 20.4757 40.0267 20.4817 40.0467 20.4731C40.0563 20.4687 40.0606 20.4626 40.0598 20.4548C40.0598 20.4391 40.065 20.4357 40.0771 20.4452C40.0884 20.4539 40.0954 20.4522 40.0971 20.44L36.8895 20.1713Z" fill="#F1A809"/>
<path d="M58.4145 20.6376C58.4171 22.2331 58.4197 23.8277 58.4206 25.4232C58.4206 25.5189 58.4389 25.7058 58.4745 25.984C58.4649 25.9727 58.4545 25.9649 58.445 25.9623C58.4215 25.9553 58.4093 25.964 58.4093 25.9892V26.0318C58.4093 26.0953 58.3971 26.0997 58.3737 26.0466C58.3537 26.0005 58.3137 25.9701 58.2554 25.9562C58.1607 25.9345 58.0686 25.9136 57.979 25.8936C57.7678 25.8466 57.5765 25.8927 57.3636 25.8293C57.2236 25.7867 57.1193 25.844 56.9733 25.8127C56.7342 25.7614 56.4691 25.784 56.2239 25.7849C56.2109 25.7849 56.2048 25.778 56.2048 25.7649C56.2048 25.7562 56.2013 25.7501 56.1944 25.7458C56.1831 25.7388 56.1718 25.7354 56.1587 25.7362C55.8797 25.7449 55.6111 25.7527 55.3529 25.7606C55.1991 25.7649 55.0356 25.7588 54.8644 25.7414C54.6958 25.7249 54.528 25.7127 54.362 25.7067C54.2185 25.7014 54.0916 25.6814 53.9803 25.6475C53.843 25.6049 53.697 25.5954 53.5414 25.6171C53.5101 25.6215 53.4901 25.6388 53.4814 25.6675C53.4701 25.7075 53.4536 25.7093 53.4318 25.6736C53.4162 25.6467 53.4066 25.6188 53.4023 25.5884C53.3945 25.531 53.3788 25.5284 53.3536 25.5806C53.2884 25.7162 53.2641 25.8675 53.2788 26.0353L53.2893 20.4855L53.351 19.9942C53.3519 19.9847 53.3605 19.9777 53.3701 19.9786C53.3797 19.9795 53.3866 19.9882 53.3858 19.9977C53.3805 20.1203 53.4284 20.1594 53.5283 20.1168C53.544 20.1107 53.5596 20.1107 53.5753 20.1168C53.7039 20.1734 53.8343 20.189 53.9664 20.162C53.9916 20.1568 54.0186 20.1603 54.0429 20.1716C54.0925 20.1951 54.149 20.2029 54.2124 20.196C54.3541 20.1794 54.5167 20.1777 54.6992 20.1907C54.7279 20.1933 54.7557 20.1864 54.7809 20.1725C54.8357 20.142 54.8922 20.1403 54.9496 20.1673C55.0383 20.2073 55.1486 20.2073 55.2408 20.1794C55.2747 20.1699 55.3077 20.1707 55.3416 20.182C55.3773 20.1951 55.4103 20.189 55.4407 20.1655C55.4685 20.1438 55.4964 20.1429 55.525 20.1638C55.5485 20.1803 55.5668 20.1768 55.5816 20.1534C55.5989 20.1255 55.6207 20.1221 55.6459 20.1429C55.6919 20.1794 55.7485 20.1864 55.8145 20.1629C55.8536 20.1499 55.8928 20.1438 55.9327 20.1447C56.5482 20.1594 57.1071 20.1881 57.6104 20.2316C57.6982 20.2394 57.8043 20.1977 57.873 20.2186C58.0234 20.2646 58.165 20.2542 58.2963 20.1881C58.3224 20.1751 58.3415 20.182 58.3528 20.209C58.4058 20.3316 58.4267 20.4742 58.4145 20.6368V20.6376Z" fill="#F1A809"/>
<path d="M112.384 20.6633C112.236 20.9876 112.139 21.3337 112.096 21.7014C112.091 21.738 112.118 21.7719 112.154 21.7762C112.158 21.7762 112.16 21.7762 112.164 21.7762L116.875 21.778C116.927 21.778 116.969 21.7362 116.969 21.6832C116.969 21.6806 116.969 21.678 116.969 21.6762C116.946 21.371 116.882 21.0815 116.777 20.8085C116.785 20.7902 116.807 20.7859 116.84 20.7946C116.882 20.805 116.901 20.7902 116.898 20.7511C116.898 20.7398 116.908 20.7372 116.93 20.7415C116.945 20.745 116.959 20.7537 116.968 20.7659C117.04 20.8563 117.135 20.8954 117.252 20.8833C117.271 20.8807 117.289 20.8833 117.305 20.892C117.395 20.932 117.49 20.9389 117.591 20.912C117.665 20.8928 117.738 20.885 117.811 20.8876C118.101 20.8989 118.394 20.8946 118.69 20.8746C118.813 20.8659 118.927 20.9128 119.043 20.8746C119.243 20.8094 119.442 20.8059 119.639 20.8641C119.669 20.8728 119.699 20.8728 119.728 20.8641C119.885 20.8189 120.041 20.812 120.196 20.8424C120.216 20.8468 120.233 20.8563 120.246 20.8711C120.256 20.8824 120.264 20.8946 120.269 20.9076C120.277 20.9276 120.292 20.9389 120.314 20.9407C120.489 20.9554 120.656 20.9589 120.814 20.9511C120.931 20.9459 121.048 20.9528 121.164 20.9711C121.275 20.9893 121.388 20.992 121.505 20.9798C121.778 20.9528 122.03 20.9746 122.26 21.045C122.407 21.6893 122.492 22.184 122.515 22.5309C122.548 23.0291 122.559 23.6091 122.549 24.2707C122.545 24.4872 122.493 24.8368 122.215 24.8368C119.751 24.8385 116.42 24.8394 112.22 24.8394C112.15 24.8394 112.105 24.8724 112.084 24.9393C112.068 24.9906 112.082 25.0732 112.125 25.1871C112.1 25.1776 112.081 25.1741 112.067 25.1767C112.059 25.1785 112.052 25.1767 112.047 25.1689C112.045 25.1654 112.044 25.1619 112.045 25.1576C112.049 25.1219 112.04 25.1185 112.02 25.1489C112.008 25.1663 111.995 25.1828 111.981 25.1993C111.961 25.2219 111.931 25.2324 111.901 25.2254C111.696 25.1758 111.488 25.1611 111.279 25.1819C111.259 25.1837 111.241 25.1776 111.227 25.1628C111.221 25.1558 111.212 25.1524 111.201 25.1515C111.021 25.1428 110.825 25.1472 110.61 25.1654C110.423 25.1811 110.243 25.1193 110.053 25.1237C109.532 25.1376 109.01 25.128 108.488 25.095C108.481 25.095 108.471 25.0959 108.459 25.1002C108.438 25.1063 108.416 25.1098 108.395 25.1098L107.054 25.095C107.041 25.095 107.027 25.0932 107.014 25.0889C106.989 25.0811 106.966 25.0846 106.946 25.0985C106.864 25.155 106.822 25.2497 106.821 25.3828C106.563 23.6821 106.563 21.9292 107.034 20.2633L107.141 20.3442C107.175 20.3694 107.211 20.3738 107.248 20.3555C107.27 20.3459 107.289 20.3503 107.306 20.3685C107.316 20.3798 107.331 20.3859 107.345 20.3851L108.517 20.3398C108.55 20.3381 108.577 20.3251 108.599 20.2999C108.612 20.2842 108.629 20.2738 108.65 20.2677C108.67 20.2633 108.69 20.2625 108.71 20.2659C108.834 20.2894 108.96 20.2894 109.089 20.2677C109.246 20.2407 109.425 20.2277 109.624 20.2286C109.721 20.2286 109.818 20.2312 109.914 20.2364C110.005 20.2407 110.095 20.2399 110.183 20.2338C110.42 20.2173 110.71 20.252 111.055 20.339C111.201 20.3764 111.34 20.4329 111.469 20.5103C111.637 20.612 111.851 20.6555 112.109 20.6407C112.115 20.6407 112.118 20.6372 112.117 20.6311C112.117 20.6216 112.12 20.6155 112.126 20.612C112.134 20.6076 112.142 20.6085 112.15 20.6137C112.191 20.6407 112.238 20.6468 112.291 20.6303C112.342 20.6155 112.373 20.6259 112.384 20.6616V20.6633Z" fill="black"/>
<path d="M32.4605 21.3341L32.4579 27.1596L32.4318 26.8422C32.4301 26.8231 32.4258 26.8222 32.4179 26.8405L32.3475 27.0057C32.3293 27.0491 32.278 27.07 32.2345 27.0518C32.2319 27.0509 32.2302 27.05 32.2276 27.0483C32.1771 27.0231 32.1215 27.0178 32.0607 27.0344C32.0354 27.0413 32.0102 27.0422 31.985 27.037C31.8329 27.0074 31.6573 26.9848 31.4582 26.97C30.5846 26.9057 29.7414 26.8726 28.9278 26.87C28.8661 26.87 28.8052 26.8822 28.7444 26.9057C28.68 26.9309 28.6114 26.9396 28.5375 26.9335C28.2011 26.9031 27.8716 26.8857 27.5474 26.8796C27.4978 26.8796 27.4213 26.8648 27.3196 26.837C27.2318 26.8135 27.151 26.8127 27.0788 26.8344C26.9876 26.8613 26.9145 26.8666 26.8615 26.85C27.1405 26.2797 27.0953 25.6197 27.078 25.0172C27.0762 24.9476 27.0406 24.9129 26.971 24.912C26.2756 24.9024 25.6228 24.8998 25.0126 24.9042C23.8712 24.912 22.3569 25.1902 22.4317 26.6988C22.0031 26.7327 21.618 26.7405 21.2781 26.7214C21.1677 26.7153 21.0374 26.6892 20.8887 26.6448C20.8644 26.637 20.8444 26.6179 20.8366 26.5935L20.8087 26.504C20.7974 26.4709 20.7766 26.4483 20.7444 26.4353C20.5636 26.3631 20.388 26.4197 20.235 26.4049C20.0333 26.3866 19.8386 26.3649 19.6396 26.4336C19.5361 26.4692 19.4309 26.464 19.3223 26.4179C19.2918 26.4049 19.2614 26.4023 19.2293 26.4101C18.9285 26.4831 18.679 26.4144 18.3826 26.4544C18.2157 26.4762 18.0366 26.4753 17.8445 26.4501C17.8254 26.4475 17.8054 26.4501 17.7889 26.4596C17.7515 26.4779 17.7158 26.4744 17.6802 26.4483C17.6585 26.4318 17.6307 26.4249 17.6037 26.4292C17.5037 26.4457 17.409 26.4336 17.3177 26.3918C17.2856 26.377 17.2482 26.3918 17.2334 26.424C17.2299 26.4327 17.2273 26.4414 17.2282 26.4501C17.2291 26.5188 17.2065 26.5779 17.1595 26.6275C17.1386 26.6492 17.1265 26.6448 17.1239 26.6153C17.116 26.5292 17.0961 26.4944 17.0648 26.5109C17.2482 24.5103 18.5173 23.1513 20.3689 22.5044C21.2755 22.1871 22.2865 22.0253 23.4035 22.0184C24.5162 22.0114 25.6984 22.0071 26.9493 22.0045C27.0336 22.0045 27.0771 21.9619 27.078 21.8775L27.0884 21.1385C27.1058 21.155 27.1214 21.1628 27.1353 21.162C27.164 21.162 27.1779 21.1472 27.1771 21.1185C27.1762 21.0915 27.1884 21.075 27.2144 21.0681C27.2336 21.062 27.2544 21.0733 27.2596 21.0924C27.2605 21.0959 27.2614 21.0994 27.2614 21.1028C27.2622 21.1715 27.297 21.2011 27.3648 21.1924C27.3796 21.1907 27.3909 21.1967 27.3987 21.2098C27.437 21.2785 27.4891 21.2854 27.5543 21.2324C27.5821 21.2089 27.6169 21.1959 27.6526 21.195C27.683 21.195 27.7091 21.2063 27.7299 21.2306C27.7551 21.2602 27.7734 21.2567 27.7847 21.2193C27.7873 21.2115 27.7882 21.2037 27.7882 21.1959C27.7873 21.1785 27.7951 21.1698 27.8125 21.1689C27.9003 21.1672 27.9664 21.1307 28.0568 21.1307C28.2454 21.1307 28.4384 21.1324 28.6366 21.1359C28.7539 21.1385 28.8748 21.1333 28.9991 21.1202C29.1755 21.1028 29.3537 21.1646 29.5389 21.1437C29.8483 21.1098 30.1474 21.1037 30.436 21.1254C30.5273 21.1324 30.5733 21.1924 30.6655 21.1933C30.8706 21.1959 31.1592 21.162 31.3548 21.2202C31.513 21.2689 31.6408 21.3298 31.799 21.2193C31.8225 21.2028 31.8381 21.208 31.8477 21.235L31.859 21.2646C31.8651 21.2828 31.8781 21.2898 31.8964 21.2854C31.939 21.2776 31.9798 21.2802 32.0198 21.2933C32.1632 21.3419 32.2928 21.315 32.4101 21.2124C32.4145 21.208 32.4153 21.2028 32.4118 21.1976C32.4075 21.1915 32.4031 21.1846 32.3988 21.1776C32.3849 21.155 32.391 21.1463 32.4171 21.1507C32.4205 21.1507 32.424 21.1507 32.4266 21.1507C32.4344 21.1507 32.4371 21.1541 32.4353 21.162C32.424 21.2167 32.4327 21.2741 32.4605 21.3332V21.3341Z" fill="#F1A809"/>
<path d="M104.278 21.5485V26.2889C104.245 26.2836 104.232 26.308 104.24 26.3628C104.24 26.3549 104.238 26.3489 104.232 26.3428C104.223 26.3341 104.208 26.3341 104.199 26.3428C104.197 26.3462 104.194 26.3497 104.193 26.3541C104.191 26.368 104.193 26.3802 104.203 26.3897C104.226 26.4149 104.222 26.4219 104.189 26.4106C104.177 26.4062 104.165 26.401 104.156 26.3941C104.131 26.3758 104.103 26.368 104.072 26.3715C103.771 26.4054 103.473 26.4054 103.178 26.3732C102.925 26.3462 102.652 26.3393 102.359 26.3532C102.026 26.3689 101.695 26.3671 101.367 26.3471C101.219 26.3376 101.066 26.3349 100.908 26.3393C100.744 26.3436 100.586 26.3393 100.435 26.3236C100.405 26.3202 100.377 26.3254 100.35 26.3393C100.333 26.3489 100.315 26.3523 100.295 26.3497C100.076 26.3228 99.8591 26.3254 99.6426 26.3567C99.6131 26.361 99.5844 26.3584 99.5566 26.3471C99.4966 26.3236 99.4357 26.3184 99.374 26.3315C99.2688 26.3523 99.1767 26.3358 99.075 26.3028C99.0672 26.3002 99.0593 26.3002 99.0524 26.3045C99.0446 26.3089 99.0376 26.3158 99.0324 26.3236C99.0063 26.3645 98.9968 26.361 99.0037 26.3132C99.0081 26.2819 99.0028 26.2523 98.9881 26.2254C98.9846 26.2176 98.9768 26.2132 98.9681 26.215C98.9472 26.2193 98.9385 26.2254 98.9411 26.2332C98.9533 26.2636 98.9437 26.2732 98.9116 26.2628C98.902 26.2602 98.8907 26.2584 98.8777 26.2576L98.8985 25.0064C98.8994 24.9594 98.862 24.9212 98.8151 24.9194C98.0727 24.8994 97.3451 24.8968 96.6315 24.9134C96.3281 24.9203 96.0334 24.9725 95.7283 25.0229C95.4258 25.0733 95.1485 25.182 94.8964 25.349C94.5817 25.5576 94.3809 25.8211 94.2948 26.1384C94.0367 26.0411 93.7411 25.9837 93.4073 25.9663C93.3795 25.9645 93.3543 25.9715 93.3308 25.9863C93.3004 26.0063 93.27 26.0063 93.2395 25.9845C93.2074 25.9619 93.1717 25.9541 93.1326 25.9602C92.7866 26.0167 92.4902 26.0393 92.2433 26.0272C92.0877 26.0193 91.9226 25.9915 91.7479 25.9419C91.6488 25.9141 91.5488 25.9046 91.4488 25.9133C91.3436 25.9219 91.2454 25.9133 91.1533 25.8863C91.0185 25.8472 90.8812 25.8211 90.7412 25.8063C90.6413 25.7967 90.5387 25.7863 90.4318 25.7767C90.2119 25.7567 89.9954 25.775 89.7842 25.715C89.679 25.6854 89.5921 25.7098 89.4947 25.6776C89.4643 25.6681 89.4347 25.6707 89.4069 25.6863C89.3765 25.7028 89.3513 25.6976 89.3304 25.6707C89.3121 25.6472 89.2878 25.6359 89.2574 25.635C89.1505 25.6341 89.074 25.6541 89.0279 25.6968C89.4347 24.1317 90.6221 23.057 92.126 22.5162C93.0831 22.1719 94.1549 22.0006 95.3415 22.0024C96.4211 22.0041 97.5477 22.005 98.7203 22.0041C98.8099 22.0041 98.8733 21.9772 98.9116 21.9224L98.9855 21.4068C98.9915 21.3694 99.0072 21.3642 99.0341 21.3903C99.0463 21.4016 99.0507 21.4146 99.0472 21.4285C99.0428 21.4503 99.0507 21.4616 99.0724 21.4633C99.2819 21.4816 99.4227 21.485 99.4948 21.4737C99.6844 21.445 99.8713 21.4198 100.056 21.3981C100.219 21.379 100.408 21.3746 100.622 21.385C100.983 21.4024 101.339 21.4085 101.687 21.4033C101.828 21.4007 101.965 21.3998 102.099 21.399C102.451 21.3963 102.847 21.4172 103.287 21.4598C103.376 21.4685 103.489 21.4685 103.627 21.4598C103.795 21.4485 103.944 21.4937 104.105 21.5224C104.134 21.5276 104.152 21.5442 104.159 21.5729C104.165 21.5928 104.177 21.6068 104.195 21.6137C104.236 21.6302 104.245 21.6563 104.219 21.692C104.217 21.6946 104.217 21.6981 104.219 21.7015C104.233 21.7302 104.239 21.7285 104.236 21.6963C104.228 21.6181 104.242 21.5685 104.278 21.5485Z" fill="black"/>
<path d="M112.125 25.1883C112.317 26.0404 112.806 26.6629 113.595 27.0568C114.526 27.5219 115.663 27.5611 116.66 27.3402C117.437 27.1672 118.11 26.7707 118.682 26.1491C118.877 25.936 119.069 25.9369 119.258 26.1508C120.075 27.0785 120.912 28.0323 121.77 29.0131C121.89 29.1505 121.885 29.2904 121.754 29.433C119.64 31.745 116.379 32.3075 113.375 31.8536C112.613 31.738 111.879 31.5189 111.172 31.1963C108.747 30.0878 107.276 27.9741 106.821 25.3839C106.821 25.2509 106.864 25.1561 106.946 25.0996C106.966 25.0857 106.989 25.0822 107.014 25.09C107.027 25.0944 107.041 25.0961 107.054 25.0961L108.394 25.1109C108.416 25.1109 108.438 25.1074 108.459 25.1013C108.471 25.097 108.481 25.0953 108.488 25.0961C109.01 25.1292 109.532 25.1387 110.053 25.1248C110.243 25.1205 110.423 25.1822 110.61 25.1666C110.825 25.1483 111.021 25.1439 111.201 25.1526C111.212 25.1526 111.221 25.157 111.227 25.1639C111.241 25.1787 111.259 25.1848 111.279 25.1831C111.488 25.1622 111.696 25.177 111.901 25.2265C111.931 25.2335 111.961 25.2231 111.981 25.2005C111.995 25.1839 112.008 25.1674 112.02 25.15C112.04 25.1196 112.049 25.1231 112.045 25.1587C112.045 25.1631 112.045 25.1665 112.047 25.17C112.052 25.177 112.058 25.1796 112.067 25.1779C112.081 25.1752 112.1 25.1787 112.125 25.1883Z" fill="black"/>
<path d="M5.36534 25.876C5.36794 27.6523 5.36881 29.4286 5.36968 31.2049C5.36968 31.4397 5.321 31.7188 5.02371 31.7223C3.90321 31.7371 2.36372 31.7405 0.403504 31.7318C0.153152 31.731 0.0262374 31.6058 0.0227603 31.3571C0.0036362 29.9068 -0.00157946 28.4565 0.00624403 27.0063L0.0670934 25.7968C0.0679627 25.7786 0.0801326 25.762 0.0975181 25.7542C0.122727 25.7429 0.145328 25.7447 0.163583 25.7594C0.181838 25.7742 0.202701 25.776 0.224433 25.7655C0.247903 25.7542 0.282674 25.7525 0.327877 25.7594C0.523464 25.7881 0.7686 25.7907 1.06155 25.769C1.1563 25.7621 1.23801 25.7481 1.30755 25.7281C1.49097 25.6734 1.7222 25.6803 1.91431 25.6873C2.10989 25.6942 2.31591 25.689 2.53149 25.6708C2.5654 25.6681 2.59669 25.6751 2.62538 25.6934C2.71404 25.7481 2.79575 25.8047 2.90354 25.8064C3.04176 25.809 3.17997 25.8116 3.31819 25.8142C3.68242 25.822 3.99796 25.7768 4.36567 25.8742C4.39522 25.882 4.41435 25.9012 4.42304 25.9316C4.4326 25.9655 4.45433 25.9925 4.48737 26.0116C4.51779 26.0281 4.53865 26.0203 4.54996 25.9872C4.55256 25.9794 4.55517 25.9707 4.55865 25.9629C4.56299 25.9516 4.57082 25.942 4.58038 25.9342C4.60472 25.9168 4.62471 25.9203 4.63949 25.9446C4.64992 25.9612 4.66383 25.9655 4.68209 25.9568C4.7412 25.9281 4.79161 25.9377 4.83421 25.9855C4.85333 26.0072 4.86463 26.0038 4.86724 25.9751C4.86811 25.9672 4.87246 25.9612 4.87941 25.9586C4.88723 25.9542 4.89593 25.9533 4.90375 25.9551C4.98286 25.9716 5.06631 25.9803 5.15497 25.9812C5.18018 25.9812 5.20365 25.9881 5.22625 26.0003C5.24016 26.0081 5.24712 26.0212 5.24798 26.0377C5.25059 26.0794 5.25668 26.0803 5.26798 26.0394C5.31231 25.8751 5.3297 25.7212 5.3184 25.5786C5.31753 25.5656 5.32274 25.5595 5.33578 25.5586H5.33665C5.34795 25.5586 5.35404 25.5638 5.35404 25.5751C5.35664 25.6751 5.36012 25.7751 5.36534 25.876Z" fill="#F1A809"/>
<path d="M58.4745 25.9837C58.5614 26.5601 58.8335 26.9357 59.2916 27.1088C59.5063 27.1896 59.808 27.2244 60.1965 27.2122C60.5095 27.2027 60.8198 27.2053 61.1284 27.2209C61.337 27.2314 61.5013 27.4035 61.5022 27.6131C61.5048 28.7634 61.5065 29.9676 61.5065 31.224C61.5065 31.5283 61.4074 31.75 61.071 31.7674C59.5411 31.8439 58.046 31.9135 56.536 31.6465C55.3129 31.4309 54.1177 30.8944 53.6378 29.6528C53.4301 29.1155 53.3171 28.5895 53.298 28.0739C53.2762 27.4992 53.2701 26.8201 53.2788 26.035C53.2641 25.8672 53.2884 25.7159 53.3536 25.5802C53.3788 25.5281 53.3945 25.5307 53.4023 25.5881C53.4066 25.6185 53.4162 25.6463 53.4318 25.6733C53.4536 25.7089 53.4701 25.7072 53.4814 25.6672C53.4901 25.6385 53.5101 25.6211 53.5414 25.6168C53.697 25.595 53.843 25.6046 53.9803 25.6472C54.0916 25.6811 54.2185 25.7011 54.362 25.7063C54.528 25.7124 54.6958 25.7246 54.8644 25.7411C55.0356 25.7585 55.1991 25.7646 55.3529 25.7602C55.6111 25.7524 55.8797 25.7446 56.1587 25.7359C56.1718 25.7359 56.1831 25.7385 56.1944 25.7454C56.2013 25.7498 56.2048 25.7559 56.2048 25.7646C56.2048 25.7776 56.2109 25.7846 56.2239 25.7846C56.4691 25.7837 56.7342 25.7611 56.9733 25.8124C57.1193 25.8437 57.2236 25.7863 57.3636 25.8289C57.5765 25.8924 57.7678 25.8463 57.979 25.8932C58.0686 25.9132 58.1607 25.9341 58.2554 25.9558C58.3137 25.9698 58.3537 26.0002 58.3737 26.0463C58.3971 26.0993 58.4093 26.095 58.4093 26.0315V25.9889C58.4093 25.9637 58.4215 25.955 58.445 25.9619C58.4545 25.9645 58.4649 25.9724 58.4745 25.9837Z" fill="#F1A809"/>
<path d="M94.2948 26.1402C94.0775 27.1635 94.5799 27.9591 95.5822 28.1026C96.9748 28.3017 98.5682 27.7669 98.8776 26.2593C98.8907 26.2593 98.902 26.2619 98.9116 26.2645C98.9437 26.2749 98.9533 26.2645 98.9411 26.2349C98.9385 26.2271 98.9472 26.221 98.9681 26.2167C98.9767 26.2149 98.9846 26.2193 98.988 26.2271C99.0028 26.2541 99.008 26.2836 99.0037 26.3149C98.9967 26.3628 99.0063 26.3662 99.0324 26.3254C99.0376 26.3175 99.0445 26.3106 99.0524 26.3062C99.0593 26.3019 99.0672 26.3019 99.075 26.3045C99.1767 26.3375 99.2688 26.3541 99.374 26.3332C99.4357 26.3201 99.4966 26.3254 99.5566 26.3488C99.5844 26.3601 99.6131 26.3628 99.6426 26.3584C99.8591 26.3271 100.076 26.3245 100.295 26.3515C100.315 26.3541 100.333 26.3506 100.35 26.341C100.377 26.3271 100.405 26.3219 100.435 26.3254C100.586 26.3401 100.744 26.3454 100.908 26.341C101.066 26.3367 101.219 26.3393 101.367 26.3488C101.695 26.3688 102.026 26.3706 102.359 26.3549C102.652 26.341 102.925 26.348 103.178 26.3749C103.473 26.4071 103.771 26.4071 104.072 26.3732C104.103 26.3697 104.131 26.3775 104.156 26.3958C104.165 26.4027 104.177 26.408 104.189 26.4123C104.222 26.4236 104.226 26.4167 104.203 26.3914C104.193 26.3819 104.191 26.3697 104.193 26.3558C104.196 26.3428 104.208 26.3349 104.221 26.3375C104.225 26.3384 104.229 26.3401 104.232 26.3436C104.238 26.3497 104.241 26.3558 104.24 26.3636C104.232 26.3088 104.245 26.2845 104.279 26.2897C104.284 27.9574 104.285 29.625 104.283 31.2927C104.283 31.5926 104.128 31.7422 103.819 31.7404C102.498 31.7317 101.02 31.7309 99.3853 31.7378C99.0802 31.7396 98.902 31.6239 98.9081 31.2727C98.915 30.8823 98.9133 30.5223 98.9029 30.1945C98.8976 30.0215 98.8455 30.0058 98.7455 30.1476C98.0362 31.1631 96.9774 31.7361 95.7743 31.9056C94.9077 32.0274 94.0393 32.0291 93.1674 31.91C91.3323 31.6587 89.6677 30.7084 89.0826 28.9025C88.7584 27.9 88.7401 26.8323 89.0279 25.6985C89.0739 25.6559 89.1504 25.6359 89.2574 25.6367C89.2878 25.6367 89.3121 25.6489 89.3304 25.6724C89.3512 25.6993 89.3765 25.7046 89.4069 25.688C89.4347 25.6724 89.4643 25.6698 89.4947 25.6793C89.592 25.7115 89.679 25.6872 89.7841 25.7167C89.9954 25.7767 90.2118 25.7585 90.4318 25.7785C90.5387 25.788 90.6412 25.7985 90.7412 25.808C90.8812 25.8228 91.0185 25.8489 91.1533 25.888C91.2454 25.915 91.3436 25.9237 91.4488 25.915C91.5488 25.9063 91.6487 25.9158 91.7478 25.9437C91.9226 25.9932 92.0877 26.0211 92.2433 26.0289C92.4902 26.041 92.7866 26.0184 93.1326 25.9619C93.1717 25.9558 93.2074 25.9637 93.2395 25.9863C93.2699 26.008 93.3004 26.008 93.3308 25.988C93.3543 25.9732 93.3795 25.9663 93.4073 25.968C93.7411 25.9854 94.0366 26.0428 94.2948 26.1402Z" fill="black"/>
<path d="M138.991 27.0575C138.914 28.6043 138.23 29.8076 136.939 30.6658C135.055 31.9187 132.686 32.1065 130.446 31.9517C127.393 31.7405 123.846 30.1893 124.092 26.5488C124.114 26.2228 124.419 26.2141 124.662 26.215C126.022 26.2167 127.417 26.2167 128.847 26.215C129.055 26.215 129.211 26.3541 129.218 26.5662C129.243 27.3183 129.94 27.7426 130.606 27.9C131.329 28.0713 132.023 28.0635 132.69 27.8774C133.15 27.7505 133.598 27.3844 133.597 26.8801C133.597 26.5871 133.46 26.361 133.186 26.2019C133.281 26.1715 133.367 26.1784 133.444 26.2211C133.468 26.2341 133.491 26.2384 133.514 26.2341C133.523 26.2324 133.527 26.2271 133.526 26.2176C133.526 26.2037 133.533 26.1967 133.547 26.1958C134.127 26.1793 134.51 26.1767 134.696 26.188C135.07 26.2115 135.444 26.2211 135.818 26.2158C135.929 26.2158 136.046 26.1584 136.152 26.1811C136.301 26.2115 136.45 26.2228 136.602 26.2132C136.739 26.2045 136.871 26.2132 136.999 26.2393C137.157 26.2715 137.315 26.2793 137.474 26.261C137.507 26.2567 137.538 26.2628 137.568 26.2776C137.599 26.2923 137.633 26.301 137.672 26.3037C137.936 26.3202 138.194 26.3202 138.447 26.3045C138.479 26.3019 138.51 26.3097 138.538 26.3263C138.588 26.3558 138.634 26.3523 138.675 26.3158C138.7 26.2941 138.717 26.2984 138.729 26.3297C138.75 26.388 138.787 26.4036 138.842 26.3767C138.879 26.3576 138.9 26.3689 138.905 26.4097L138.991 27.0584V27.0575Z" fill="black"/>
<path d="M43.9559 26.325C44.0402 26.3111 44.0932 26.3467 44.1132 26.4328C44.1219 26.4693 44.1419 26.4771 44.1732 26.4554C44.2532 26.4015 44.3418 26.3841 44.4392 26.4032C44.5122 26.418 44.5878 26.425 44.6652 26.425C44.9834 26.4258 45.2989 26.4267 45.6127 26.4276C45.6883 26.4276 45.7622 26.4258 45.8361 26.4197C45.9204 26.4137 46.0013 26.4284 46.0787 26.4641C46.1047 26.4763 46.1325 26.4815 46.1604 26.4797C46.4646 26.465 46.7628 26.498 47.067 26.4954C47.26 26.4954 47.4312 26.5397 47.6207 26.5441C48.0319 26.5528 48.4309 26.5928 48.8195 26.6641C48.9325 26.6849 49.0455 26.6962 49.1585 26.6971C49.2732 26.698 49.3854 26.6962 49.494 26.6902C49.5279 26.6875 49.5453 26.7032 49.5462 26.7371L49.5601 27.1249C49.4845 28.5239 48.8847 29.6429 47.7607 30.481C47.0383 31.0193 46.249 31.3975 45.3928 31.6166C44.9277 31.7357 44.4609 31.8418 43.9854 31.8948C42.3434 32.0783 40.6344 32.0391 39.061 31.6305C37.7232 31.2818 36.4749 30.6654 35.596 29.6055C34.9449 28.8204 34.6337 27.8396 34.6616 26.6632C34.6694 26.3702 34.8006 26.2224 35.0553 26.2206C36.454 26.2111 37.8675 26.2102 39.2948 26.2189C39.5304 26.2198 39.7712 26.2511 39.7894 26.5458C39.8129 26.9258 39.9581 27.2231 40.2249 27.437C41.0325 28.0865 42.4181 28.1474 43.3343 27.8509C44.0089 27.6327 44.4731 26.9927 43.9559 26.325Z" fill="#F1A809"/>
<path d="M22.4317 26.6989C22.4865 27.4214 22.8655 27.8762 23.5696 28.0649C23.8573 28.1422 24.1868 28.1709 24.5597 28.1509C25.2117 28.117 25.7889 27.9083 26.2913 27.5249C26.5208 27.3493 26.7112 27.1241 26.8616 26.8502C26.9146 26.8667 26.9876 26.8615 27.0789 26.8345C27.151 26.8128 27.2319 26.8137 27.3197 26.8372C27.4214 26.865 27.4979 26.8789 27.5474 26.8798C27.8717 26.8858 28.2011 26.9032 28.5375 26.9337C28.6114 26.9398 28.6801 26.9311 28.7444 26.9058C28.8053 26.8824 28.8661 26.8702 28.9278 26.8702C29.7415 26.8728 30.5847 26.9058 31.4583 26.9702C31.6574 26.985 31.8329 27.0076 31.9851 27.0371C32.0103 27.0424 32.0355 27.0415 32.0607 27.0345C32.1215 27.018 32.1772 27.0232 32.2276 27.0484C32.2702 27.071 32.3224 27.0545 32.345 27.0119C32.3458 27.0102 32.3467 27.0076 32.3484 27.0058L32.4188 26.8406C32.4267 26.8224 32.431 26.8232 32.4327 26.8424L32.4588 27.1597C32.464 28.5431 32.4667 29.9281 32.4675 31.3132C32.4675 31.5888 32.325 31.7288 32.0381 31.7314C30.5673 31.7436 29.0356 31.7418 27.4422 31.7271C27.2553 31.7262 27.1032 31.5775 27.0954 31.3906C27.0797 31.0063 27.0754 30.5941 27.0815 30.1551C27.0823 30.0838 27.0519 30.0646 26.9893 30.0985C26.9546 30.1168 26.9259 30.142 26.9041 30.1742C25.7263 31.8966 23.6105 32.1166 21.6911 31.9479C20.4689 31.8401 19.158 31.3923 18.2931 30.5507C17.1778 29.4664 16.9361 28.0414 17.0657 26.5111C17.097 26.4946 17.117 26.5294 17.1248 26.6154C17.1274 26.645 17.1396 26.6494 17.1604 26.6276C17.2074 26.5781 17.23 26.5189 17.2291 26.4502C17.2291 26.4155 17.2569 26.3868 17.2926 26.3868C17.3012 26.3868 17.3108 26.3885 17.3186 26.392C17.4099 26.4337 17.5047 26.4459 17.6046 26.4294C17.6316 26.425 17.6594 26.432 17.6811 26.4485C17.7168 26.4746 17.7524 26.4781 17.7898 26.4598C17.8063 26.4511 17.8263 26.4476 17.8454 26.4502C18.0375 26.4755 18.2166 26.4763 18.3835 26.4546C18.6799 26.4146 18.9294 26.4833 19.2302 26.4102C19.2623 26.4024 19.2928 26.405 19.3232 26.4181C19.4318 26.4642 19.537 26.4694 19.6405 26.4337C19.8395 26.365 20.0343 26.3868 20.2359 26.405C20.3889 26.4198 20.5645 26.3633 20.7453 26.4355C20.7775 26.4485 20.7983 26.4711 20.8096 26.5041L20.8375 26.5937C20.8453 26.618 20.8653 26.6372 20.8896 26.645C21.0383 26.6893 21.1687 26.7154 21.2791 26.7215C21.6189 26.7406 22.004 26.7328 22.4326 26.6989H22.4317Z" fill="#F1A809"/>
<path d="M76.0409 28.1081V31.4017C76.04 31.5808 75.8957 31.726 75.7167 31.7269C74.2059 31.7382 72.6612 31.7408 71.0817 31.7338C70.8322 31.7338 70.7061 31.6008 70.7035 31.3356C70.6914 30.1053 70.6844 28.8741 70.6827 27.6438L70.6922 27.596C70.7018 27.5491 70.7183 27.5464 70.7427 27.5873C70.7661 27.6256 70.7679 27.6656 70.7487 27.7064C70.7435 27.7186 70.7487 27.7325 70.76 27.7377C70.7618 27.7386 70.7644 27.7395 70.767 27.7395C70.7748 27.7403 70.7818 27.7403 70.7896 27.7395C70.7974 27.7377 70.8018 27.7325 70.8026 27.7247C70.807 27.6786 70.8235 27.6412 70.8539 27.6143C70.8757 27.5943 70.9009 27.5899 70.9296 27.5995C71.0617 27.6447 71.1912 27.6143 71.3233 27.6647C71.4389 27.709 71.5459 27.7299 71.645 27.729C71.7606 27.7282 71.8762 27.7386 71.9918 27.7603C72.0909 27.7786 72.1952 27.7899 72.3048 27.7934C73.0358 27.8203 73.7747 27.8212 74.5205 27.7969C74.6744 27.7916 74.8969 27.836 75.1881 27.9299C75.2898 27.9621 75.395 27.9803 75.5046 27.9829C75.6167 27.9855 75.7314 27.9916 75.8497 28.0012C75.8783 28.0029 75.901 28.016 75.9175 28.0403C75.9462 28.0829 75.9496 28.1246 75.9279 28.1664C75.9218 28.1777 75.9227 28.189 75.9296 28.1994C75.9348 28.2055 75.9375 28.2133 75.9375 28.222C75.9375 28.2438 75.9401 28.2446 75.9461 28.2229C75.9887 28.056 76.0209 28.0177 76.0409 28.1081Z" fill="black"/>
</g>
<defs>
<clipPath id="clip0_2215_52">
<rect width="139" height="32" fill="white"/>
</clipPath>
</defs>
</svg>
