<svg width="139" height="32" viewBox="0 0 139 32" fill="none" xmlns="http://www.w3.org/2000/svg">
<g clip-path="url(#clip0_2125_52)">
<path d="M114.745 0.887658C114.759 0.72072 114.715 0.7042 114.613 0.837229C114.499 0.986778 114.417 1.18328 114.367 1.42673C114.357 1.47803 114.326 1.50324 114.273 1.5015C114.238 1.50064 114.207 1.47629 114.199 1.44151C114.001 0.691158 114.51 0.361629 115.042 0.0138404C115.081 -0.0122437 115.133 -0.0009406 115.159 0.0381856C115.164 0.0442719 115.166 0.0512276 115.169 0.0581834C115.288 0.4251 115.156 0.801581 115.031 1.15111C114.985 1.28066 114.907 1.38152 114.798 1.45195C114.623 1.56411 114.572 1.52324 114.643 1.32848C114.7 1.17284 114.734 1.0259 114.745 0.887658Z" fill="#F4B225"/>
<path d="M113.533 1.27368C113.502 1.43453 113.517 1.62494 113.581 1.84492C113.588 1.87361 113.583 1.89883 113.564 1.92056C113.552 1.93534 113.536 1.9423 113.517 1.94317C113.487 1.94404 113.462 1.93273 113.444 1.90839C113.231 1.62494 113.139 1.3215 113.31 0.969361C113.389 0.80677 113.473 0.652874 113.561 0.508542C113.583 0.472893 113.629 0.459851 113.666 0.479849C113.89 0.600706 114.069 1.4267 113.938 1.66407C113.847 1.83014 113.786 1.8197 113.754 1.63364C113.73 1.49713 113.694 1.3728 113.647 1.2615C113.595 1.14412 113.558 1.14847 113.533 1.27368Z" fill="#F7C04A"/>
<path d="M112.579 2.15894C112.557 2.19198 112.549 2.22937 112.553 2.27023C112.572 2.43282 112.611 2.59194 112.668 2.74757C112.684 2.79278 112.685 2.83887 112.67 2.88582C112.659 2.91973 112.624 2.93799 112.59 2.92755C112.582 2.92494 112.574 2.9206 112.567 2.91451C112.208 2.59455 112.127 2.21372 112.325 1.7729C112.381 1.64682 112.426 1.52423 112.462 1.40424C112.475 1.36077 112.52 1.33642 112.564 1.34946C112.575 1.35294 112.586 1.35903 112.595 1.36685C112.848 1.59291 113.003 1.94157 113.06 2.41196C113.073 2.51368 113.049 2.60237 112.987 2.67628C112.977 2.68845 112.965 2.69801 112.95 2.70584C112.902 2.73279 112.87 2.71975 112.857 2.66497C112.818 2.4989 112.75 2.3311 112.655 2.16155C112.643 2.13981 112.616 2.13286 112.594 2.1459C112.588 2.14938 112.584 2.15372 112.579 2.15894Z" fill="#F4B225"/>
<path d="M114.449 1.67277C114.469 1.66669 114.478 1.67364 114.476 1.69451C114.473 1.73538 114.456 1.76842 114.425 1.79363C114.096 2.0536 113.834 2.38661 113.608 2.73788C112.173 4.97502 110.309 6.96698 108.062 8.419C105.948 9.7858 103.558 10.5309 101.059 10.8622C98.7872 11.1639 96.5975 10.9022 94.4886 10.0771C94.0392 9.90144 93.5881 9.71972 93.1352 9.53279C93.1326 9.53192 93.1308 9.52931 93.1317 9.52583L93.1386 9.50497C93.143 9.49366 93.1508 9.48932 93.1621 9.49192C94.4547 9.80406 95.743 10.0101 97.0252 10.1101C101.298 10.4396 105.151 9.41106 108.585 7.02437C110.481 5.70625 112.053 4.10555 113.503 2.32053C113.751 2.01535 114.066 1.79885 114.449 1.67277Z" fill="#F1A809"/>
<path d="M115.196 2.21889C115.223 2.21715 115.228 2.20584 115.211 2.18498C115.169 2.1302 115.112 2.09542 115.04 2.08238C115.023 2.07977 115.005 2.08064 114.988 2.08499L114.584 2.20063C114.548 2.21106 114.512 2.19019 114.501 2.15454C114.499 2.14498 114.498 2.13542 114.499 2.12585C114.551 1.78415 114.762 1.63808 115.131 1.68764C115.439 1.7285 115.787 1.80241 116.174 1.90848C116.192 1.9137 116.202 1.93283 116.197 1.95022C116.196 1.9537 116.195 1.95717 116.192 1.96065C115.992 2.24497 115.713 2.42843 115.359 2.46495C115.054 2.49712 114.774 2.49625 114.519 2.46234C114.492 2.45799 114.472 2.44408 114.459 2.41886C114.44 2.38148 114.445 2.34409 114.472 2.3067C114.489 2.28497 114.511 2.27279 114.538 2.27018L115.196 2.21889Z" fill="#F7C04A"/>
<path d="M111.672 3.30921C111.641 3.48571 111.667 3.67004 111.752 3.86219C111.763 3.88741 111.769 3.91262 111.77 3.93957C111.77 3.95522 111.767 3.97 111.761 3.98392C111.742 4.02826 111.69 4.04913 111.646 4.02913C111.635 4.02478 111.625 4.01783 111.617 4.00913C111.313 3.6883 111.21 3.37094 111.387 2.9562C111.453 2.80144 111.507 2.64667 111.552 2.4919C111.56 2.46408 111.588 2.44669 111.617 2.45452C111.623 2.45626 111.629 2.45886 111.634 2.46321C111.938 2.68319 112.059 3.08054 112.141 3.43267C112.167 3.5457 112.156 3.65091 112.108 3.74742C112.028 3.9074 111.967 3.90045 111.925 3.72655C111.885 3.56396 111.824 3.4205 111.743 3.2953C111.707 3.23965 111.683 3.244 111.672 3.30921Z" fill="#FCD177"/>
<path d="M114.666 3.33187C114.529 3.09016 114.253 3.25536 114.059 3.26666C113.94 3.27449 113.909 3.2258 113.966 3.12059C114.185 2.71629 114.532 2.79106 114.899 2.89975C115.162 2.97713 115.383 3.09798 115.659 3.14233C115.682 3.14581 115.697 3.16754 115.693 3.19015C115.691 3.19797 115.688 3.2058 115.683 3.21189C115.459 3.45186 115.226 3.58489 114.983 3.61097C114.725 3.63793 114.423 3.62749 114.078 3.57793C114.007 3.5675 113.947 3.53968 113.898 3.49533C113.879 3.47794 113.869 3.45534 113.87 3.42838C113.872 3.37708 113.898 3.35274 113.948 3.35448L114.638 3.37708C114.674 3.37795 114.684 3.36317 114.666 3.33187Z" fill="#F1A809"/>
<path d="M110.515 4.22836C110.428 4.42747 110.484 4.75091 110.515 4.95784C110.548 5.19173 110.488 5.21868 110.336 5.0387C109.836 4.45268 110.205 3.86579 110.542 3.33889C110.556 3.31628 110.585 3.30846 110.609 3.3215C110.97 3.52756 111.155 4.61353 110.902 4.93437C110.875 4.97088 110.822 4.97697 110.786 4.94828C110.768 4.93437 110.756 4.9135 110.755 4.89002C110.733 4.64744 110.678 4.42747 110.591 4.22836C110.582 4.20749 110.557 4.19793 110.536 4.20662C110.527 4.21097 110.519 4.21879 110.515 4.22836Z" fill="#F1A809"/>
<path d="M113.681 4.58287C113.724 4.57504 113.734 4.55244 113.712 4.51505C113.7 4.49505 113.683 4.4794 113.662 4.46897C113.618 4.44636 113.571 4.43767 113.522 4.44288C113.368 4.4594 113.216 4.49766 113.065 4.55939C113.033 4.57244 112.996 4.55679 112.983 4.52462C112.979 4.51418 112.978 4.50288 112.979 4.49244C113.029 4.08727 113.362 4.00641 113.715 4.06032C114.012 4.10466 114.327 4.15944 114.662 4.22465C114.685 4.22899 114.7 4.2516 114.696 4.27421C114.695 4.28029 114.692 4.28551 114.689 4.29073C114.286 4.85936 113.621 4.90805 112.993 4.80458C112.963 4.80024 112.94 4.7785 112.933 4.74981C112.917 4.68634 112.942 4.65417 113.007 4.65243C113.243 4.64634 113.468 4.62287 113.681 4.58287Z" fill="#F7C04A"/>
<path d="M109.424 5.09672C109.421 5.07672 109.402 5.06281 109.382 5.06629C109.374 5.06802 109.366 5.0715 109.36 5.07759C109.16 5.28365 109.138 5.69057 109.16 5.97227C109.163 6.00792 109.15 6.03488 109.12 6.05313C109.079 6.07922 109.026 6.06705 109 6.02618C108.999 6.02444 108.998 6.02183 108.997 6.02009C108.568 5.20627 109.035 4.72111 109.537 4.15856C109.557 4.13682 109.591 4.13421 109.614 4.15421C109.906 4.4107 109.877 4.98282 109.84 5.37756C109.819 5.60188 109.745 5.78968 109.619 5.94184C109.594 5.9714 109.553 5.98097 109.518 5.96619C109.469 5.94532 109.445 5.91315 109.45 5.86968C109.476 5.59927 109.467 5.34104 109.424 5.09672Z" fill="#F7C04A"/>
<path d="M96.056 14.221C93.5229 13.9698 91.0933 12.9586 88.8071 11.7109C87.4849 10.9901 86.1714 10.2206 84.8675 9.40417C84.798 9.35982 84.8023 9.35113 84.8805 9.37634C86.2201 9.80499 87.5214 10.3336 88.7845 10.9623C89.4277 11.2822 90.0927 11.6213 90.7786 11.9804C92.6597 12.9646 94.6425 13.4802 96.7271 13.5263C98.8124 13.5715 100.913 13.4924 102.958 13.0516C105.81 12.4369 108.554 11.4066 111.192 9.9615C113.642 8.61903 115.95 6.89314 117.577 4.6586C117.604 4.62295 117.614 4.62729 117.609 4.67164C117.609 4.67859 117.609 4.68555 117.61 4.69251C117.611 4.69859 117.61 4.70468 117.607 4.70989C116.746 6.55317 115.071 7.99475 113.499 9.20419C111.899 10.4362 110.18 11.4639 108.342 12.2882C105.258 13.6707 102.002 14.3662 98.5725 14.3758C97.7293 14.3775 96.8905 14.3036 96.056 14.221Z" fill="#F1A809"/>
<path d="M107.918 5.87239C107.918 5.85326 107.903 5.83761 107.884 5.83674C107.877 5.83674 107.87 5.83848 107.865 5.84282C107.57 6.04019 107.482 6.45493 107.402 6.78881C107.385 6.8575 107.344 6.88445 107.275 6.86967C107.248 6.86358 107.231 6.84793 107.224 6.82098C107.05 6.16714 107.217 5.66371 107.728 5.31071C107.937 5.16551 108.135 5.02117 108.323 4.87771C108.344 4.86119 108.375 4.86554 108.391 4.88728C108.394 4.88988 108.395 4.89336 108.396 4.89597C108.453 5.01683 108.483 5.14116 108.488 5.2681C108.5 5.6811 108.366 6.55492 107.965 6.80794C107.754 6.94097 107.689 6.88967 107.769 6.65317C107.865 6.36885 107.916 6.10801 107.918 5.87239Z" fill="#F1A809"/>
<path d="M112.757 5.98451C112.808 5.99234 112.819 5.97495 112.79 5.93148C112.762 5.88713 112.726 5.84975 112.684 5.82018C112.636 5.78714 112.579 5.76889 112.52 5.76802C112.352 5.76715 112.178 5.78888 111.999 5.8341C111.95 5.84627 111.9 5.81671 111.887 5.76715C111.882 5.74802 111.884 5.72802 111.892 5.70976C112.103 5.19243 112.533 5.20634 112.989 5.38458C113.326 5.51674 113.65 5.62977 113.96 5.72454C113.982 5.7315 113.994 5.75497 113.987 5.77671C113.986 5.7828 113.982 5.78801 113.978 5.79323C113.403 6.39664 112.562 6.37404 111.823 6.13406C111.774 6.11841 111.748 6.06624 111.764 6.01842C111.771 5.99582 111.786 5.97669 111.807 5.96539C111.836 5.94974 111.867 5.94191 111.902 5.94104C112.244 5.93322 112.528 5.948 112.757 5.98451Z" fill="#F1A809"/>
<path d="M95.6648 12.5977C93.9793 12.2473 92.2642 11.6447 90.6065 10.8683C89.3747 10.291 88.1325 9.70494 86.8799 9.11022C85.5482 8.47898 83.9556 7.87905 82.4848 7.6382C81.2809 7.44084 80.1117 7.45562 78.979 7.68342C77.8533 7.91035 76.7624 8.32596 75.7053 8.93198C75.5689 9.01023 75.5532 8.9911 75.6584 8.87372C77.0736 7.29737 78.8643 6.5192 81.0305 6.53919C82.5613 6.55311 84.0713 6.89742 85.5525 7.38606C88.7958 8.45464 92.0495 10.1145 95.2293 11.117C96.2942 11.4526 97.3547 11.6647 98.4108 11.7543C98.6829 11.7769 98.9489 11.7821 99.2088 11.7699C100.356 11.7143 101.436 11.5708 102.447 11.3387C103.075 11.1952 103.784 11.0031 104.575 10.7622C105.462 10.4927 106.329 10.2292 107.173 9.97186C107.291 9.93622 107.297 9.951 107.194 10.0171C105.123 11.3387 102.752 12.309 100.362 12.6994C98.822 12.9498 97.2095 12.9194 95.6648 12.5977Z" fill="#D59203"/>
<path d="M111.498 7.35921C111.545 7.36704 111.558 7.34965 111.536 7.30704C111.518 7.27139 111.494 7.24183 111.466 7.21662C111.427 7.18271 111.379 7.16097 111.327 7.15488C111.139 7.13141 110.949 7.14967 110.757 7.20966C110.703 7.22705 110.646 7.19749 110.629 7.14358C110.621 7.11924 110.622 7.09228 110.633 7.06881C110.859 6.57582 111.27 6.58886 111.724 6.75841C112.058 6.88361 112.377 6.99229 112.678 7.08446C112.712 7.09489 112.73 7.12967 112.721 7.16358C112.718 7.17314 112.713 7.18184 112.706 7.18879C112.426 7.48181 112.085 7.63657 111.683 7.65309C111.435 7.66352 110.709 7.64527 110.544 7.44268C110.518 7.41138 110.522 7.3653 110.554 7.33921C110.566 7.32965 110.58 7.32356 110.595 7.32269C110.908 7.29835 111.209 7.31052 111.498 7.35921Z" fill="#F7C04A"/>
<path d="M109.796 8.80338C109.9 8.81816 109.917 8.78599 109.847 8.70687C109.57 8.39299 109.143 8.59471 108.793 8.56689C108.733 8.56167 108.688 8.5095 108.693 8.44864C108.694 8.43299 108.699 8.41734 108.707 8.4043C108.982 7.91478 109.418 7.78262 109.93 7.99217C110.315 8.14954 110.703 8.30692 111.095 8.46255C111.174 8.49472 111.26 8.5182 111.355 8.53472C111.388 8.53993 111.41 8.57123 111.405 8.60427C111.403 8.61645 111.397 8.62775 111.388 8.63645C110.967 9.06683 110.398 9.25638 109.799 9.20943C109.337 9.17378 108.937 9.08161 108.6 8.93467C108.554 8.91468 108.531 8.86338 108.546 8.81556C108.567 8.74339 108.614 8.70774 108.684 8.71035C109.093 8.72426 109.465 8.75556 109.796 8.80338Z" fill="#F1A809"/>
<path d="M5.36167 13.7741C5.3608 13.7436 5.34429 13.7158 5.31386 13.6906C5.29387 13.6732 5.26518 13.6741 5.24606 13.6923C5.22693 13.7097 5.20694 13.7115 5.18695 13.6976C5.16869 13.6845 5.14783 13.6793 5.12523 13.6802C4.98006 13.6854 4.82446 13.7228 4.67929 13.701C4.45588 13.6689 4.23074 13.6454 4.00212 13.6315C3.99517 13.6315 3.98908 13.6332 3.983 13.6384C3.97691 13.6437 3.96996 13.6463 3.96214 13.6454C3.6831 13.6202 3.41014 13.5958 3.14502 13.5724C2.92161 13.5524 2.6956 13.5193 2.46872 13.4732C2.23227 13.4254 2.008 13.4106 1.79503 13.4298C1.78112 13.4306 1.76808 13.4289 1.75591 13.4228C1.74374 13.4167 1.73505 13.408 1.72896 13.3967C1.71766 13.3733 1.69854 13.362 1.67159 13.3646L1.4195 13.3854C1.38908 13.388 1.36387 13.4019 1.34561 13.4272C1.32214 13.4593 1.29259 13.4663 1.25695 13.4489C1.23 13.4359 1.20218 13.4324 1.17349 13.4367L0.994424 13.4663C0.963999 13.4706 0.935313 13.4645 0.910104 13.4472C0.885764 13.4306 0.862293 13.4332 0.839692 13.4559C0.821437 13.4741 0.798836 13.4811 0.772758 13.475C0.636281 13.4446 0.447648 13.4976 0.345074 13.3959C0.320734 13.3715 0.281616 13.3706 0.256407 13.3941C0.234675 13.4133 0.212944 13.4167 0.191212 13.4054C0.128624 13.3733 0.0990683 13.3924 0.102545 13.4637C0.102545 13.475 0.0938526 13.4776 0.0755978 13.4698C0.0495195 13.4585 0.0373496 13.4672 0.0382189 13.4958C0.0408267 13.555 0.0277875 13.5828 0.000839959 13.5802C-0.00176787 12.9463 0.00083996 11.5978 0.00605562 9.5328C0.00779418 9.12589 0.2651 9.09807 0.61455 9.09894C7.70003 9.10415 12.6905 9.10328 15.5844 9.09546C15.8843 9.09546 16.0364 9.2224 16.0407 9.47716C16.0573 10.6518 16.0625 11.8195 16.0564 12.9811C16.0546 13.2567 16.0851 13.6906 15.6713 13.6923C12.4924 13.7037 9.09522 13.7071 5.47902 13.7037C5.4486 13.7037 5.40948 13.7271 5.36167 13.7741Z" fill="#FCD177"/>
<path d="M87.3119 19.2327C87.3189 19.1822 87.3145 19.1422 87.2998 19.1136C87.2876 19.0892 87.2702 19.0857 87.2485 19.1022C87.2389 19.1092 87.2363 19.117 87.2389 19.1266C87.2546 19.1727 87.2363 19.1944 87.1833 19.1909C86.7617 19.164 86.3853 19.124 86.0541 19.0718C85.9567 19.0562 85.8628 19.0475 85.7724 19.0466C85.6864 19.0466 85.6003 19.031 85.5143 19.0005C85.4108 18.9649 85.3048 18.951 85.1961 18.9588C85.0666 18.9684 84.964 18.9675 84.8884 18.9588C84.439 18.9023 83.96 18.8805 83.4532 18.8936C83.4402 18.8936 83.4271 18.8971 83.4141 18.9031C83.4097 18.9049 83.408 18.9084 83.4071 18.9127C83.4002 18.9475 83.3767 18.9579 83.3376 18.9431C83.2289 18.904 83.1211 18.8997 83.0133 18.9301C82.9864 18.9379 82.9603 18.9379 82.9342 18.9301C82.8186 18.8944 82.6978 18.8875 82.5718 18.9084C82.4388 18.9301 82.3049 18.9275 82.1693 18.8997C81.9902 18.8631 81.7938 18.8658 81.5808 18.9066C81.5521 18.9118 81.5225 18.9023 81.5025 18.8805C81.4652 18.8397 81.4182 18.8292 81.3617 18.8492C81.3504 18.8536 81.3374 18.8544 81.3235 18.8527C81.3139 18.8518 81.3096 18.8458 81.3104 18.8353C81.3157 18.7901 81.3017 18.784 81.2696 18.8162C81.2478 18.8379 81.2279 18.8605 81.2087 18.8823C81.1896 18.904 81.1661 18.9118 81.1383 18.9049C81.1148 18.8997 81.094 18.9049 81.074 18.9205C81.0531 18.937 81.0305 18.951 81.0053 18.9614C80.8654 19.0196 80.7367 19.0257 80.6194 18.9805C82.018 18.5406 82.6761 17.3772 82.4874 15.9722C82.3501 14.9444 81.6834 14.2193 80.7132 13.8654C80.3855 13.7463 79.9066 13.6872 79.2763 13.6898C78.2323 13.6941 77.1892 13.6994 76.1469 13.7046C76.0869 13.7046 76.0383 13.7541 76.0383 13.8141L76.0426 18.9318C75.9131 18.7092 75.6958 18.6345 75.3889 18.7066C75.3628 18.7127 75.3376 18.7101 75.3124 18.6997C75.2768 18.684 75.2385 18.6806 75.1985 18.6901C75.1681 18.6971 75.1386 18.6962 75.109 18.6875C74.983 18.6484 74.8508 18.6388 74.7135 18.6579C74.6848 18.6623 74.6587 18.6553 74.6335 18.6388C74.6187 18.6293 74.6014 18.624 74.584 18.624C74.3458 18.624 74.1111 18.604 73.8799 18.5632C73.8008 18.5493 73.7216 18.5554 73.6425 18.5823C73.5773 18.604 73.5104 18.6127 73.4409 18.6084C73.2296 18.5936 73.028 18.5875 72.8367 18.591C72.7646 18.5919 72.7029 18.5753 72.6498 18.5397C72.629 18.5258 72.6064 18.5223 72.5812 18.5293C72.4499 18.5667 72.3334 18.551 72.2334 18.4806C72.21 18.4641 72.1848 18.4562 72.1569 18.4562C72.0796 18.4562 72.0031 18.4449 71.9292 18.4232C71.8597 18.4032 71.7866 18.3936 71.711 18.3962C71.498 18.4015 71.2885 18.3997 71.0825 18.3919C71.0495 18.391 71.0199 18.3797 70.9939 18.3589C70.9704 18.3406 70.9443 18.331 70.9156 18.3293C70.8939 18.3275 70.8835 18.338 70.8843 18.3597C70.8843 18.3719 70.88 18.3754 70.8687 18.371C70.8591 18.3667 70.853 18.358 70.8522 18.3475C70.8522 18.3389 70.8469 18.3328 70.8374 18.3284C70.8278 18.3249 70.82 18.3267 70.8122 18.3328C70.7957 18.3475 70.7896 18.3649 70.7948 18.3858C70.7974 18.3936 70.7948 18.3954 70.7878 18.391C70.7852 18.3893 70.7826 18.3867 70.78 18.3841C70.7591 18.3502 70.7409 18.3536 70.7261 18.3954C70.7087 18.4423 70.6966 18.5023 70.6896 18.5745C70.6879 15.5461 70.6905 12.5177 70.6974 9.49112C70.6974 9.29462 70.7783 9.17289 70.94 9.12681C71.0191 9.10507 71.1451 9.09464 71.3198 9.09551C72.6568 9.10681 74.0355 9.10855 75.4559 9.10073C77.5152 9.09116 79.2755 9.09725 80.7358 9.11898C84.0252 9.16767 86.8469 11.0431 87.644 14.3419C88.016 15.88 87.9465 17.7372 87.3119 19.2335V19.2327Z" fill="#FCD177"/>
<path d="M58.4146 20.6377C58.4267 20.4751 58.4059 20.3326 58.3528 20.21C58.3415 20.183 58.3224 20.176 58.2963 20.1891C58.1651 20.2552 58.0234 20.2656 57.873 20.2195C57.8043 20.1987 57.6983 20.2404 57.6105 20.2326C57.1072 20.1891 56.5482 20.1604 55.9328 20.1456C55.8928 20.1447 55.8537 20.1508 55.8146 20.1639C55.7485 20.1874 55.692 20.1804 55.6459 20.1439C55.6207 20.123 55.599 20.1265 55.5816 20.1543C55.5668 20.1778 55.5486 20.1813 55.5251 20.1647C55.4964 20.1439 55.4686 20.1447 55.4408 20.1665C55.4103 20.19 55.3773 20.196 55.3417 20.183C55.3078 20.1717 55.2747 20.1708 55.2408 20.1804C55.1487 20.2082 55.0383 20.2082 54.9496 20.1682C54.8923 20.1413 54.8358 20.143 54.781 20.1734C54.7558 20.1874 54.728 20.1943 54.6993 20.1917C54.5167 20.1787 54.3542 20.1804 54.2125 20.1969C54.149 20.2039 54.0925 20.196 54.043 20.1726C54.0186 20.1613 53.9917 20.1578 53.9665 20.163C53.8343 20.19 53.704 20.1743 53.5753 20.1178C53.5597 20.1108 53.544 20.1108 53.5284 20.1178C53.4284 20.1604 53.3806 20.1213 53.3858 19.9987C53.3867 19.9891 53.3797 19.9804 53.3702 19.9795C53.3606 19.9787 53.3519 19.9856 53.351 19.9952L53.2893 20.4864L53.2763 19.4996C53.2745 19.3927 53.2206 19.3396 53.1137 19.3396C52.4835 19.3405 51.8889 19.3387 51.33 19.3327C51.0301 19.3301 50.8805 19.1709 50.8814 18.8562C50.8849 17.7389 50.8892 16.5764 50.8936 15.3687C50.8944 15.174 51.0527 15.0166 51.2474 15.0157L53.1737 15.0088C53.225 15.0088 53.2667 14.9679 53.2684 14.9166C53.2763 14.7106 53.2806 14.5088 53.2797 14.3132C53.2771 13.062 53.2797 11.9474 53.2893 10.9684C53.2919 10.6988 53.4293 10.564 53.7022 10.564C55.1131 10.5623 56.4969 10.5623 57.853 10.564C58.3485 10.5649 58.4041 10.6623 58.4067 11.1414C58.4146 12.3717 58.418 13.6081 58.4189 14.8497C58.4189 14.9601 58.4737 15.0149 58.5841 15.014C59.5507 15.0036 60.5391 15.007 61.5483 15.0253C61.7769 15.0288 61.896 15.194 61.9004 15.4087C61.9238 16.6564 61.9238 17.8363 61.9012 18.9501C61.8951 19.2083 61.6883 19.3335 61.4414 19.3344C60.4652 19.3379 59.4864 19.3379 58.505 19.3344C58.4589 19.3344 58.4224 19.3709 58.4215 19.417L58.4146 20.6386V20.6377Z" fill="#FCD177"/>
<path d="M5.36175 13.7741L5.37739 17.9076C5.37739 17.9528 5.41477 17.9885 5.45998 17.9885L12.0847 17.998C12.2629 17.998 12.4072 18.1424 12.4081 18.3206C12.4133 19.7135 12.4151 20.996 12.4125 22.168C12.4125 22.4228 12.2734 22.5497 11.9978 22.5506C9.79332 22.5549 7.62534 22.5549 5.49388 22.5506C5.4226 22.5506 5.36522 22.608 5.36522 22.6784V25.8772C5.36001 25.7763 5.35653 25.6763 5.35392 25.5763C5.35392 25.565 5.34784 25.559 5.33654 25.5598H5.33567C5.32263 25.5598 5.31741 25.5668 5.31828 25.5798C5.32958 25.7224 5.3122 25.8763 5.26786 26.0406C5.25656 26.0815 5.25048 26.0806 5.24787 26.0389C5.24787 26.0224 5.24005 26.0093 5.22614 26.0015C5.20354 25.9893 5.18007 25.9833 5.15486 25.9824C5.06619 25.9824 4.98274 25.9728 4.90364 25.9563C4.89581 25.9546 4.88712 25.9563 4.8793 25.9598C4.87234 25.9624 4.868 25.9685 4.86713 25.9763C4.86452 26.005 4.85322 26.0085 4.8341 25.9867C4.7915 25.9389 4.74108 25.9293 4.68197 25.958C4.66372 25.9667 4.64981 25.9624 4.63938 25.9459C4.6246 25.9215 4.60461 25.918 4.58027 25.9354C4.5707 25.9433 4.56288 25.9528 4.55853 25.9641C4.55506 25.972 4.55245 25.9806 4.54984 25.9885C4.53854 26.0215 4.51768 26.0293 4.48725 26.0128C4.45422 25.9937 4.43249 25.9667 4.42293 25.9328C4.41424 25.9024 4.39511 25.8833 4.36556 25.8754C3.99785 25.7781 3.6823 25.8233 3.31808 25.8154C3.17986 25.8128 3.04165 25.8102 2.90343 25.8076C2.79564 25.8059 2.71393 25.7494 2.62526 25.6946C2.59658 25.6763 2.56528 25.6694 2.53138 25.672C2.3158 25.6902 2.10978 25.6955 1.91419 25.6885C1.72208 25.6815 1.49086 25.6746 1.30744 25.7294C1.2379 25.7494 1.15618 25.7633 1.06143 25.7702C0.768487 25.792 0.523351 25.7894 0.327764 25.7607C0.282561 25.7537 0.24779 25.7555 0.22432 25.7668C0.202588 25.7772 0.181725 25.7755 0.16347 25.7607C0.145216 25.7459 0.122614 25.7442 0.0974053 25.7555C0.0800197 25.7633 0.0678499 25.7798 0.0669806 25.7981L0.00613119 27.0075L0.000915527 13.5803C0.0278631 13.5829 0.0409023 13.555 0.0382944 13.4959C0.0374252 13.4672 0.049595 13.4585 0.0756733 13.4698C0.0939282 13.4777 0.10349 13.475 0.102621 13.4637C0.0991438 13.3924 0.128699 13.3733 0.191287 13.4055C0.213019 13.4168 0.234751 13.4133 0.256483 13.3942C0.281692 13.3707 0.320809 13.3716 0.345149 13.3959C0.447724 13.4977 0.636357 13.4446 0.772833 13.475C0.798912 13.4811 0.821513 13.475 0.839768 13.4559C0.862369 13.4333 0.885839 13.4307 0.910179 13.4472C0.935388 13.4646 0.964074 13.4707 0.994499 13.4664L1.17357 13.4368C1.20226 13.4324 1.23007 13.4368 1.25702 13.449C1.29266 13.4664 1.32222 13.4594 1.34569 13.4272C1.36394 13.402 1.38915 13.3881 1.41958 13.3855L1.67167 13.3646C1.69861 13.362 1.71774 13.3733 1.72904 13.3968C1.73512 13.4081 1.74382 13.4168 1.75599 13.4229C1.76816 13.429 1.78119 13.4307 1.7951 13.4298C2.00808 13.4107 2.23235 13.4255 2.46879 13.4733C2.69567 13.5194 2.92169 13.5524 3.14509 13.5724C3.41022 13.5959 3.68317 13.6203 3.96221 13.6455C3.97003 13.6455 3.97699 13.6437 3.98307 13.6385C3.98916 13.6333 3.99524 13.6307 4.0022 13.6316C4.23082 13.6455 4.45596 13.6689 4.67936 13.7011C4.82453 13.7228 4.98013 13.6855 5.1253 13.6802C5.1479 13.6794 5.16877 13.6846 5.18702 13.6976C5.20702 13.7115 5.22701 13.7098 5.24613 13.6924C5.26526 13.6742 5.29394 13.6733 5.31394 13.6907C5.34436 13.7159 5.36088 13.7437 5.36175 13.7741Z" fill="#F7C04A"/>
<path d="M122.26 21.0464C122.03 20.976 121.778 20.9543 121.505 20.9812C121.388 20.9934 121.275 20.9908 121.164 20.9725C121.048 20.9543 120.931 20.9473 120.814 20.9525C120.656 20.9604 120.489 20.9569 120.314 20.9421C120.292 20.9404 120.277 20.9291 120.269 20.9091C120.264 20.896 120.256 20.8839 120.246 20.8726C120.233 20.8578 120.216 20.8482 120.196 20.8439C120.041 20.8134 119.885 20.8204 119.728 20.8656C119.699 20.8734 119.669 20.8734 119.639 20.8656C119.442 20.8073 119.243 20.8108 119.043 20.876C118.927 20.9143 118.813 20.8673 118.69 20.876C118.394 20.896 118.101 20.9004 117.81 20.8891C117.738 20.8865 117.665 20.8943 117.591 20.9134C117.49 20.9404 117.395 20.9334 117.305 20.8934C117.289 20.8856 117.271 20.8821 117.252 20.8847C117.135 20.8969 117.04 20.8578 116.968 20.7673C116.959 20.7552 116.945 20.7465 116.93 20.743C116.908 20.7387 116.897 20.7413 116.898 20.7526C116.901 20.7917 116.882 20.8065 116.84 20.796C116.806 20.7873 116.785 20.7917 116.777 20.8099C116.482 20.0031 115.9 19.5327 115.031 19.3997C113.883 19.224 112.877 19.5623 112.384 20.6639C112.373 20.6282 112.342 20.6178 112.291 20.6326C112.238 20.6491 112.191 20.643 112.15 20.6161C112.142 20.6108 112.134 20.61 112.126 20.6143C112.12 20.6178 112.117 20.6239 112.117 20.6334C112.117 20.6395 112.115 20.643 112.109 20.643C111.851 20.6578 111.637 20.6143 111.469 20.5126C111.34 20.4352 111.201 20.3787 111.054 20.3413C110.71 20.2544 110.42 20.2196 110.183 20.2361C110.095 20.2422 110.005 20.2431 109.914 20.2387C109.817 20.2335 109.721 20.2309 109.624 20.2309C109.425 20.2309 109.246 20.2431 109.089 20.27C108.96 20.2917 108.834 20.2917 108.71 20.2683C108.69 20.2648 108.67 20.2657 108.65 20.27C108.629 20.2761 108.612 20.2865 108.599 20.3022C108.577 20.3274 108.55 20.3404 108.517 20.3422L107.345 20.3874C107.33 20.3874 107.316 20.3822 107.306 20.3709C107.289 20.3526 107.27 20.3483 107.248 20.3578C107.211 20.3761 107.175 20.3717 107.141 20.3465L107.034 20.2657C107.355 19.1501 107.842 18.2059 108.495 17.4312C109.824 15.8548 111.54 14.968 113.639 14.7706C115.164 14.628 116.67 14.8341 118.028 15.501C119.373 16.1609 120.438 17.1556 121.227 18.4859C121.712 19.304 122.056 20.1578 122.26 21.0473V21.0464Z" fill="#FCD177"/>
<path d="M32.4606 21.3342C32.4327 21.2751 32.424 21.2177 32.4353 21.1629C32.4371 21.1551 32.4345 21.1516 32.4266 21.1516C32.424 21.1516 32.4206 21.1516 32.4171 21.1516C32.391 21.1473 32.3849 21.156 32.3988 21.1786C32.4032 21.1855 32.4075 21.1925 32.4119 21.1986C32.4153 21.2038 32.4145 21.209 32.4101 21.2134C32.2928 21.316 32.1633 21.3429 32.0198 21.2942C31.9798 21.2812 31.939 21.2786 31.8964 21.2864C31.8781 21.2907 31.8651 21.2838 31.859 21.2655L31.8477 21.236C31.8381 21.209 31.8225 21.2038 31.799 21.2203C31.6408 21.3307 31.513 21.2699 31.3548 21.2212C31.1592 21.1629 30.8706 21.1968 30.6655 21.1942C30.5733 21.1934 30.5273 21.1334 30.436 21.1264C30.1474 21.1047 29.8484 21.1108 29.5389 21.1447C29.3538 21.1655 29.1756 21.1038 28.9991 21.1212C28.8748 21.1342 28.754 21.1395 28.6366 21.1369C28.4384 21.1334 28.2454 21.1316 28.0568 21.1316C27.9664 21.1316 27.9003 21.1682 27.8125 21.1699C27.7951 21.1699 27.7873 21.1795 27.7882 21.1968C27.7882 21.2047 27.7873 21.2125 27.7847 21.2203C27.7734 21.2577 27.7552 21.2612 27.7299 21.2316C27.7091 21.2073 27.683 21.1951 27.6526 21.196C27.6169 21.1968 27.5822 21.2099 27.5544 21.2334C27.4892 21.2864 27.437 21.2794 27.3988 21.2108C27.3909 21.1977 27.3796 21.1916 27.3648 21.1934C27.297 21.2021 27.2623 21.1725 27.2614 21.1038C27.2614 21.0838 27.2449 21.0673 27.2249 21.0673C27.2214 21.0673 27.2179 21.0673 27.2145 21.069C27.1884 21.076 27.1762 21.0925 27.1771 21.1195C27.1771 21.1482 27.164 21.1629 27.1354 21.1629C27.1215 21.1629 27.1058 21.156 27.0884 21.1395C27.0354 20.2378 26.5755 19.6753 25.708 19.4518C24.8935 19.2423 23.4157 19.3353 22.9168 20.1952C22.7751 20.4387 22.6968 20.7482 22.3343 20.703C20.6679 20.4934 19.0902 20.2865 17.6011 20.0831C17.2247 20.0309 17.3177 19.6918 17.3699 19.4057C17.8011 17.0408 20.0221 15.6044 22.197 15.0688C25.3742 14.2863 29.8032 14.9114 31.7364 17.892C32.145 18.5215 32.3806 19.184 32.4423 19.8805C32.4762 20.2509 32.4823 20.736 32.4606 21.3351V21.3342Z" fill="#F7C04A"/>
<path d="M40.0971 20.4404C40.0954 20.4526 40.0884 20.4543 40.0771 20.4456C40.065 20.4361 40.0589 20.4396 40.0598 20.4552C40.0598 20.463 40.0563 20.4691 40.0467 20.4735C40.0267 20.4822 40.0146 20.4761 40.0093 20.4552C40.0015 20.4213 39.9815 20.4109 39.9502 20.4257C39.9302 20.4343 39.9189 20.4283 39.9163 20.4065C39.9128 20.3796 39.8989 20.3578 39.8737 20.3413C39.8581 20.3317 39.8416 20.3257 39.8242 20.3239C39.7572 20.317 39.6894 20.3022 39.6225 20.2796C39.6095 20.2752 39.5973 20.2761 39.5851 20.2831C39.5443 20.3083 39.5017 20.3161 39.4573 20.3065C39.1913 20.2509 38.9106 20.2222 38.615 20.2213C38.263 20.2213 37.9309 20.2083 37.6197 20.1848C37.3832 20.1665 37.1399 20.1622 36.8895 20.1718M36.7947 20.1752L36.1332 20.137C36.1254 20.137 36.1219 20.1396 36.1228 20.1474C36.1237 20.157 36.1211 20.1639 36.1141 20.1674C36.1028 20.1735 36.0906 20.1761 36.0776 20.1735C35.8785 20.1344 35.6716 20.1013 35.4561 20.0735C35.3987 20.0657 35.3431 20.05 35.2892 20.0257C35.2631 20.0144 35.2361 20.01 35.2074 20.0135C35.1396 20.0222 35.0953 20.0544 35.0744 20.1092C35.0666 20.13 35.051 20.1387 35.0292 20.1352C34.9997 20.1309 34.9797 20.1431 34.9693 20.1718C34.9606 20.1952 34.951 20.1952 34.9397 20.1718C34.9354 20.1631 34.9345 20.1535 34.9371 20.1439C34.9406 20.1257 34.9371 20.1239 34.9258 20.1387C34.9206 20.1457 34.918 20.1535 34.9189 20.1613C34.9232 20.2544 34.9162 20.35 34.8989 20.4465C34.7224 17.2938 37.159 15.4079 39.998 14.9289C43.0283 14.4176 47.1296 14.961 48.716 18.0137C49.0646 18.685 49.2471 19.4414 49.2619 20.2839C49.2663 20.5656 49.1176 20.7065 48.816 20.7074C47.5529 20.71 46.1673 20.7108 44.6608 20.7091C44.2384 20.7091 44.2731 20.3587 44.2062 20.0683C43.9724 19.0606 42.5998 18.8832 41.7618 18.9293C40.9473 18.9736 39.7685 19.3658 40.0971 20.4396L36.7947 20.1744V20.1752Z" fill="#F7C04A"/>
<path d="M104.278 21.5489C104.242 21.5689 104.228 21.6184 104.236 21.6967C104.239 21.7289 104.233 21.7306 104.218 21.7019C104.217 21.6984 104.217 21.6949 104.219 21.6923C104.245 21.6567 104.236 21.6306 104.195 21.6141C104.177 21.6071 104.165 21.5932 104.159 21.5732C104.152 21.5445 104.134 21.528 104.105 21.5228C103.944 21.4941 103.795 21.4489 103.626 21.4602C103.489 21.4698 103.376 21.4698 103.287 21.4602C102.847 21.4176 102.451 21.3967 102.099 21.3993C101.965 21.3993 101.828 21.4011 101.687 21.4037C101.339 21.4089 100.983 21.4037 100.622 21.3854C100.408 21.375 100.219 21.3793 100.055 21.3985C99.8712 21.4202 99.6843 21.4454 99.4948 21.4741C99.4227 21.4854 99.2818 21.4819 99.0723 21.4637C99.0506 21.4619 99.0428 21.4506 99.0471 21.4289C99.0506 21.415 99.0463 21.4019 99.0341 21.3906C99.0071 21.3646 98.9915 21.3698 98.9854 21.4072L98.9115 21.9227C98.915 21.4984 98.9463 21.0324 98.8281 20.6455C98.6281 19.989 98.1535 19.583 97.4042 19.4291C96.3993 19.2222 95.0658 19.3961 94.6025 20.4403C94.5217 20.6212 94.3504 20.729 94.1531 20.7046C92.6319 20.5142 91.0741 20.3099 89.4807 20.0925C89.2226 20.0577 89.1104 19.9125 89.1443 19.6569C89.286 18.5849 89.7693 17.6528 90.5925 16.8624C91.9408 15.5687 93.8045 14.9418 95.6856 14.7914C96.7879 14.7035 97.898 14.7722 99.015 14.9974C99.1593 15.0261 99.447 15.1087 99.879 15.2443C101.376 15.7147 102.799 16.6546 103.632 18.0006C104.045 18.6675 104.258 19.4456 104.27 20.3351C104.279 20.9759 104.282 21.3802 104.278 21.548V21.5489Z" fill="#FCD177"/>
<path d="M129.456 20.1926L129.417 20.1657C129.392 20.1474 129.374 20.1526 129.363 20.1831C129.35 20.2205 129.324 20.2378 129.285 20.2361C129.181 20.2309 129.079 20.2005 128.981 20.1448C128.954 20.1292 128.922 20.1239 128.891 20.1292C128.739 20.1561 128.604 20.1457 128.485 20.0996C128.404 20.0683 128.323 20.0544 128.238 20.0587C128.151 20.0631 128.065 20.0561 127.984 20.0379C127.896 20.017 127.802 20.0109 127.702 20.0196C127.522 20.0344 127.353 20.0405 127.194 20.037C127.032 20.0326 126.875 20.0422 126.723 20.0639C126.528 20.0926 126.334 20.1213 126.14 20.1518C126.025 20.1692 125.91 20.1596 125.795 20.1239C125.672 20.0857 125.562 20.1083 125.463 20.1918C125.449 20.2031 125.433 20.2065 125.416 20.2005C125.406 20.1978 125.403 20.1909 125.404 20.1813C125.407 20.1457 125.391 20.1292 125.355 20.1318C125.203 20.1448 125.022 20.1396 124.811 20.117C124.793 20.1144 124.782 20.1222 124.779 20.1405C124.777 20.1544 124.775 20.1544 124.773 20.1405C124.77 20.1265 124.763 20.1152 124.753 20.1065C124.739 20.0952 124.72 20.0909 124.703 20.0944C124.662 20.1039 124.616 20.1005 124.565 20.0839C124.553 20.0805 124.551 20.0744 124.56 20.0648C124.567 20.057 124.575 20.057 124.583 20.0648C124.597 20.0787 124.611 20.0787 124.624 20.0648C124.632 20.057 124.636 20.0466 124.637 20.0353C124.64 20.0083 124.627 19.9996 124.602 20.0083C124.577 20.0179 124.561 20.01 124.555 19.9866C124.551 19.9718 124.555 19.9692 124.567 19.9787C124.57 19.9805 124.572 19.9822 124.574 19.984C124.587 19.9935 124.6 19.9953 124.613 19.9874C124.623 19.9813 124.63 19.9727 124.633 19.9596C124.638 19.9344 124.627 19.9222 124.602 19.9231C124.573 19.9231 124.547 19.9309 124.522 19.944C124.492 19.9596 124.465 19.9561 124.44 19.9327C124.394 19.8918 124.358 19.8379 124.33 19.7727C124.53 16.9599 126.833 15.3758 129.437 14.9254C130.702 14.7063 131.995 14.7002 133.318 14.9071C136.206 15.3592 138.686 17.2521 138.683 20.3413C138.683 20.6117 138.443 20.7134 138.213 20.7143C136.785 20.7187 135.409 20.716 134.083 20.7074C133.83 20.7056 133.696 20.5813 133.677 20.3344C133.601 19.2614 132.499 18.9493 131.561 18.9249C130.786 18.9049 129.408 19.1223 129.456 20.1935V20.1926Z" fill="#FCD177"/>
<path d="M76.0426 18.931C76.0305 19.0658 76.0687 19.1327 76.1574 19.1327C77.3361 19.1327 78.5149 19.1319 79.6936 19.1292C79.9405 19.1292 80.2491 19.0788 80.6194 18.9797C80.7367 19.0249 80.8654 19.0188 81.0053 18.9606C81.0306 18.9501 81.0532 18.9362 81.074 18.9197C81.094 18.9041 81.1149 18.8988 81.1383 18.9041C81.1662 18.911 81.1896 18.9041 81.2088 18.8814C81.2279 18.8597 81.2479 18.8371 81.2696 18.8154C81.3018 18.7832 81.3157 18.7893 81.3105 18.8345C81.3096 18.8449 81.3139 18.851 81.3235 18.8519C81.3374 18.8536 81.3504 18.8519 81.3617 18.8484C81.4182 18.8284 81.4652 18.8388 81.5026 18.8797C81.5226 18.9014 81.5521 18.911 81.5808 18.9058C81.7938 18.8649 81.9902 18.8623 82.1693 18.8988C82.3049 18.9267 82.4388 18.9293 82.5718 18.9075C82.6978 18.8867 82.8187 18.8936 82.9343 18.9293C82.9603 18.9371 82.9864 18.9371 83.0134 18.9293C83.1212 18.8988 83.229 18.9032 83.3376 18.9423C83.3767 18.9571 83.4002 18.9467 83.4072 18.9119C83.4072 18.9075 83.4098 18.9041 83.4141 18.9023C83.4271 18.8962 83.4402 18.8927 83.4532 18.8927C83.96 18.8797 84.439 18.9014 84.8884 18.958C84.964 18.9675 85.0666 18.9684 85.1961 18.958C85.3048 18.9501 85.4108 18.964 85.5143 18.9997C85.6003 19.0301 85.6864 19.0449 85.7725 19.0458C85.8629 19.0466 85.9567 19.0553 86.0541 19.071C86.3853 19.1232 86.7617 19.1632 87.1833 19.1901C87.2363 19.1936 87.2546 19.1718 87.2389 19.1258C87.2363 19.1162 87.2389 19.1084 87.2485 19.1014C87.2702 19.0849 87.2876 19.0884 87.2998 19.1127C87.3146 19.1414 87.3189 19.1814 87.3119 19.2318C86.4314 21.3116 84.6459 22.6463 82.4753 23.1427C81.7486 23.3088 81.0279 23.394 80.3143 23.3983C79.0338 23.4053 77.656 23.4062 76.1817 23.4001C76.1052 23.4001 76.0435 23.4618 76.0426 23.5383C76.0426 23.5383 76.0426 23.5383 76.0426 23.5392L76.0409 28.1074C76.0209 28.017 75.9887 28.0552 75.9461 28.2222C75.9401 28.2439 75.9375 28.243 75.9375 28.2213C75.9375 28.2126 75.9348 28.2048 75.9296 28.1987C75.9227 28.1883 75.9218 28.177 75.9279 28.1657C75.9496 28.1239 75.9462 28.0822 75.9175 28.0396C75.901 28.0152 75.8783 28.0022 75.8497 28.0005C75.7314 27.9909 75.6167 27.9848 75.5046 27.9822C75.395 27.9796 75.2898 27.9613 75.1881 27.9292C74.8969 27.8353 74.6744 27.7909 74.5205 27.7961C73.7747 27.8205 73.0358 27.8196 72.3048 27.7927C72.1952 27.7892 72.0909 27.7779 71.9918 27.7596C71.8762 27.7379 71.7606 27.7274 71.645 27.7283C71.5459 27.7292 71.4389 27.7083 71.3233 27.664C71.1912 27.6135 71.0617 27.644 70.9296 27.5988C70.9009 27.5892 70.8757 27.5935 70.8539 27.6135C70.8235 27.6405 70.807 27.6779 70.8026 27.724C70.8026 27.7318 70.7974 27.737 70.7896 27.7387C70.7818 27.7396 70.7748 27.7396 70.767 27.7387C70.754 27.737 70.7453 27.7248 70.747 27.7127C70.747 27.7101 70.7479 27.7083 70.7487 27.7057C70.7679 27.6648 70.7661 27.6248 70.7427 27.5866C70.7183 27.5457 70.7018 27.5483 70.6922 27.5953L70.6827 27.6431L70.6896 18.5728C70.6966 18.5006 70.7088 18.4406 70.7261 18.3937C70.7409 18.3519 70.7592 18.3485 70.78 18.3824C70.7826 18.385 70.7853 18.3876 70.7879 18.3893C70.7948 18.3937 70.7974 18.3919 70.7948 18.3841C70.7896 18.3632 70.7948 18.3459 70.8122 18.3311C70.82 18.325 70.8279 18.3232 70.8374 18.3267C70.847 18.3311 70.8513 18.3372 70.8522 18.3459C70.8531 18.3563 70.8591 18.365 70.8687 18.3693C70.88 18.3737 70.8852 18.3702 70.8844 18.358C70.8835 18.3363 70.8939 18.3259 70.9156 18.3276C70.9443 18.3293 70.9704 18.3389 70.9939 18.3572C71.02 18.378 71.0495 18.3893 71.0825 18.3902C71.2886 18.398 71.4981 18.3998 71.711 18.3945C71.7867 18.3919 71.8597 18.4015 71.9292 18.4215C72.0031 18.4432 72.0796 18.4537 72.157 18.4545C72.1848 18.4545 72.21 18.4624 72.2335 18.4789C72.3334 18.5493 72.4499 18.565 72.5812 18.5276C72.6064 18.5206 72.629 18.5241 72.6499 18.538C72.7029 18.5737 72.7646 18.5902 72.8367 18.5893C73.028 18.5858 73.2297 18.5919 73.4409 18.6067C73.5104 18.611 73.5774 18.6023 73.6426 18.5806C73.7217 18.5537 73.8008 18.5476 73.8799 18.5615C74.1111 18.6023 74.3458 18.6232 74.584 18.6223C74.6014 18.6223 74.6188 18.6276 74.6335 18.6371C74.6588 18.6536 74.6848 18.6606 74.7135 18.6563C74.8509 18.6371 74.983 18.6467 75.109 18.6858C75.1386 18.6945 75.1681 18.6954 75.1986 18.6884C75.2386 18.6789 75.2768 18.6823 75.3124 18.698C75.3377 18.7084 75.3629 18.711 75.3889 18.7049C75.6958 18.6328 75.9131 18.7076 76.0426 18.9301V18.931Z" fill="#F7C04A"/>
<path d="M124.33 19.7719C124.358 19.8371 124.394 19.891 124.44 19.9318C124.465 19.9553 124.492 19.9588 124.522 19.9432C124.547 19.9301 124.574 19.9232 124.602 19.9223C124.627 19.9223 124.638 19.9336 124.633 19.9588C124.63 19.9718 124.623 19.9805 124.613 19.9866C124.6 19.9944 124.587 19.9927 124.574 19.9831C124.572 19.9814 124.57 19.9797 124.567 19.9779C124.555 19.9684 124.551 19.971 124.555 19.9858C124.561 20.0092 124.577 20.0171 124.602 20.0075C124.627 19.9988 124.64 20.0075 124.637 20.0344C124.637 20.0457 124.632 20.0562 124.624 20.064C124.611 20.0788 124.597 20.0788 124.583 20.064C124.575 20.0562 124.567 20.0562 124.56 20.064C124.551 20.0736 124.553 20.0797 124.565 20.0831C124.616 20.0997 124.662 20.1031 124.703 20.0936C124.72 20.0901 124.739 20.0936 124.753 20.1057C124.763 20.1144 124.77 20.1257 124.773 20.1397C124.775 20.1536 124.777 20.1536 124.78 20.1397C124.782 20.1214 124.793 20.1136 124.811 20.1162C125.022 20.1388 125.203 20.144 125.355 20.131C125.391 20.1283 125.407 20.1449 125.404 20.1805C125.403 20.1901 125.406 20.197 125.416 20.1996C125.433 20.2057 125.449 20.2023 125.463 20.191C125.562 20.1075 125.672 20.0849 125.795 20.1231C125.91 20.1588 126.025 20.1683 126.14 20.151C126.334 20.1205 126.528 20.0918 126.723 20.0631C126.875 20.0414 127.032 20.0318 127.194 20.0362C127.353 20.0397 127.522 20.0336 127.702 20.0188C127.802 20.0101 127.896 20.0162 127.984 20.0371C128.065 20.0553 128.151 20.0623 128.238 20.0579C128.323 20.0536 128.404 20.0675 128.485 20.0988C128.604 20.1449 128.739 20.1553 128.891 20.1283C128.922 20.1231 128.954 20.1283 128.981 20.144C129.079 20.1996 129.181 20.2301 129.285 20.2353C129.324 20.237 129.35 20.2196 129.363 20.1823C129.374 20.1518 129.392 20.1466 129.417 20.1649L129.456 20.1918C129.499 20.6396 129.882 20.8448 130.286 20.9665C130.725 21.0978 131.103 21.1969 131.42 21.2639C132.287 21.4465 133.177 21.643 134.089 21.8542C135.561 22.1951 137.264 22.9489 138.199 24.1462C138.862 24.9956 139.043 25.9825 138.991 27.0572L138.905 26.4085C138.9 26.3677 138.879 26.3564 138.842 26.3755C138.787 26.4025 138.75 26.3868 138.729 26.3285C138.718 26.2972 138.7 26.2929 138.675 26.3146C138.634 26.3512 138.588 26.3546 138.538 26.3251C138.51 26.3085 138.479 26.3007 138.447 26.3033C138.194 26.319 137.936 26.319 137.672 26.3025C137.633 26.2999 137.599 26.2912 137.568 26.2764C137.538 26.2616 137.507 26.2555 137.474 26.2599C137.315 26.2781 137.157 26.2703 136.999 26.2381C136.871 26.212 136.739 26.2033 136.602 26.212C136.45 26.2216 136.301 26.2103 136.152 26.1799C136.046 26.1573 135.929 26.2138 135.818 26.2146C135.444 26.2199 135.07 26.2103 134.696 26.1868C134.51 26.1755 134.127 26.1781 133.547 26.1946C133.533 26.1946 133.526 26.2025 133.526 26.2164C133.526 26.2259 133.523 26.2312 133.514 26.2329C133.491 26.2372 133.468 26.2329 133.444 26.2199C133.367 26.1773 133.281 26.1703 133.186 26.2007C132.779 26.0242 132.399 25.9008 132.046 25.8295C130.935 25.6051 129.838 25.4095 128.683 25.0226C127.417 24.5974 126.145 23.9523 125.238 22.9698C124.463 22.129 124.229 20.8787 124.33 19.771V19.7719Z" fill="#F7C04A"/>
<path d="M40.0971 20.4405C40.1902 20.5996 40.2866 20.7083 40.3866 20.7657C40.8665 21.0404 41.5714 21.1761 42.0982 21.2874C42.9432 21.4656 43.7759 21.6491 44.5957 21.8377C46.0613 22.176 47.725 22.8933 48.6917 24.0358C49.4349 24.9157 49.6331 25.9842 49.5601 27.125L49.5462 26.7372C49.5453 26.7033 49.5279 26.6876 49.494 26.6903C49.3854 26.6963 49.2732 26.6981 49.1585 26.6972C49.0455 26.6963 48.9325 26.685 48.8195 26.6642C48.4309 26.5929 48.0319 26.5529 47.6207 26.5442C47.4312 26.5398 47.26 26.4946 47.067 26.4955C46.7628 26.4981 46.4646 26.4651 46.1604 26.4798C46.1325 26.4816 46.1047 26.4764 46.0786 26.4642C46.0013 26.4285 45.9204 26.4138 45.8361 26.4199C45.7622 26.4259 45.6883 26.4285 45.6127 26.4277C45.2989 26.4277 44.9833 26.4259 44.6652 26.4251C44.5878 26.4251 44.5122 26.4181 44.4392 26.4033C44.3418 26.3842 44.2532 26.4016 44.1732 26.4555C44.1419 26.4772 44.1219 26.4694 44.1132 26.4329C44.0932 26.3468 44.0402 26.3112 43.9559 26.3251C43.5847 26.1025 43.1944 25.9503 42.7867 25.8677C41.654 25.6382 40.7778 25.4452 40.1597 25.2895C38.6967 24.9209 37.2468 24.2801 36.1176 23.2767C35.2961 22.5464 34.9163 21.5221 34.8989 20.4475C34.9163 20.3509 34.9232 20.2553 34.9189 20.1623C34.9189 20.1544 34.9206 20.1466 34.9258 20.1397C34.9371 20.1249 34.9406 20.1266 34.9371 20.1449C34.9345 20.1544 34.9354 20.164 34.9397 20.1727C34.951 20.1953 34.9606 20.1953 34.9693 20.1727C34.9797 20.144 34.9997 20.1318 35.0293 20.1362C35.051 20.1397 35.0666 20.131 35.0745 20.1101C35.0953 20.0553 35.1397 20.0232 35.2075 20.0145C35.2361 20.011 35.2631 20.0145 35.2892 20.0266C35.3431 20.051 35.3987 20.0666 35.4561 20.0745C35.6717 20.1023 35.8785 20.1353 36.0776 20.1744C36.0906 20.1771 36.1028 20.1744 36.1141 20.1684C36.1211 20.1649 36.1237 20.1579 36.1228 20.1484C36.1228 20.1405 36.1254 20.1371 36.1332 20.1379L36.7948 20.1762M36.8895 20.1718C37.1399 20.1623 37.3833 20.1666 37.6197 20.1849C37.9309 20.2084 38.263 20.2205 38.615 20.2214C38.9106 20.2223 39.1914 20.251 39.4574 20.3066C39.5017 20.3162 39.5443 20.3083 39.5851 20.2831C39.5973 20.2762 39.6095 20.2753 39.6225 20.2797C39.6895 20.3023 39.7573 20.317 39.8242 20.324C39.8416 20.3257 39.8581 20.3318 39.8737 20.3414C39.8989 20.3579 39.9129 20.3796 39.9163 20.4066C39.9189 20.4283 39.9302 20.4344 39.9502 20.4257C39.9815 20.4109 40.0015 20.4214 40.0093 20.4553C40.0146 20.4762 40.0267 20.4822 40.0467 20.4735C40.0563 20.4692 40.0606 20.4631 40.0598 20.4553C40.0598 20.4396 40.065 20.4362 40.0771 20.4457C40.0884 20.4544 40.0954 20.4527 40.0971 20.4405L36.8895 20.1718Z" fill="#F4B225"/>
<path d="M58.4145 20.6376C58.4171 22.2331 58.4197 23.8277 58.4206 25.4232C58.4206 25.5189 58.4389 25.7058 58.4745 25.984C58.4649 25.9727 58.4545 25.9649 58.445 25.9623C58.4215 25.9553 58.4093 25.964 58.4093 25.9892V26.0318C58.4093 26.0953 58.3971 26.0997 58.3737 26.0466C58.3537 26.0005 58.3137 25.9701 58.2554 25.9562C58.1607 25.9345 58.0686 25.9136 57.979 25.8936C57.7678 25.8466 57.5765 25.8927 57.3636 25.8293C57.2236 25.7867 57.1193 25.844 56.9733 25.8127C56.7342 25.7614 56.4691 25.784 56.2239 25.7849C56.2109 25.7849 56.2048 25.778 56.2048 25.7649C56.2048 25.7562 56.2013 25.7501 56.1944 25.7458C56.1831 25.7388 56.1718 25.7354 56.1587 25.7362C55.8797 25.7449 55.6111 25.7527 55.3529 25.7606C55.1991 25.7649 55.0356 25.7588 54.8644 25.7414C54.6958 25.7249 54.528 25.7127 54.362 25.7067C54.2185 25.7014 54.0916 25.6814 53.9803 25.6475C53.843 25.6049 53.697 25.5954 53.5414 25.6171C53.5101 25.6215 53.4901 25.6388 53.4814 25.6675C53.4701 25.7075 53.4536 25.7093 53.4318 25.6736C53.4162 25.6467 53.4066 25.6188 53.4023 25.5884C53.3945 25.531 53.3788 25.5284 53.3536 25.5806C53.2884 25.7162 53.2641 25.8675 53.2788 26.0353L53.2893 20.4855L53.351 19.9942C53.3519 19.9847 53.3605 19.9777 53.3701 19.9786C53.3797 19.9795 53.3866 19.9882 53.3858 19.9977C53.3805 20.1203 53.4284 20.1594 53.5283 20.1168C53.544 20.1107 53.5596 20.1107 53.5753 20.1168C53.7039 20.1734 53.8343 20.189 53.9664 20.162C53.9916 20.1568 54.0186 20.1603 54.0429 20.1716C54.0925 20.1951 54.149 20.2029 54.2124 20.196C54.3541 20.1794 54.5167 20.1777 54.6992 20.1907C54.7279 20.1933 54.7557 20.1864 54.7809 20.1725C54.8357 20.142 54.8922 20.1403 54.9496 20.1673C55.0383 20.2073 55.1486 20.2073 55.2408 20.1794C55.2747 20.1699 55.3077 20.1707 55.3416 20.182C55.3773 20.1951 55.4103 20.189 55.4407 20.1655C55.4685 20.1438 55.4964 20.1429 55.525 20.1638C55.5485 20.1803 55.5668 20.1768 55.5816 20.1534C55.5989 20.1255 55.6207 20.1221 55.6459 20.1429C55.6919 20.1794 55.7485 20.1864 55.8145 20.1629C55.8536 20.1499 55.8928 20.1438 55.9327 20.1447C56.5482 20.1594 57.1071 20.1881 57.6104 20.2316C57.6982 20.2394 57.8043 20.1977 57.873 20.2186C58.0234 20.2646 58.165 20.2542 58.2963 20.1881C58.3224 20.1751 58.3415 20.182 58.3528 20.209C58.4058 20.3316 58.4267 20.4742 58.4145 20.6368V20.6376Z" fill="#F7C04A"/>
<path d="M112.384 20.663C112.236 20.9874 112.139 21.3334 112.096 21.7012C112.091 21.7377 112.118 21.7716 112.154 21.776C112.158 21.776 112.16 21.776 112.164 21.776L116.875 21.7777C116.927 21.7777 116.969 21.736 116.969 21.6829C116.969 21.6803 116.969 21.6777 116.969 21.676C116.946 21.3708 116.882 21.0813 116.777 20.8083C116.785 20.79 116.807 20.7856 116.84 20.7943C116.882 20.8048 116.901 20.79 116.898 20.7509C116.898 20.7396 116.908 20.737 116.93 20.7413C116.945 20.7448 116.959 20.7535 116.968 20.7656C117.04 20.8561 117.135 20.8952 117.252 20.883C117.271 20.8804 117.289 20.883 117.305 20.8917C117.395 20.9317 117.49 20.9387 117.591 20.9117C117.665 20.8926 117.738 20.8848 117.811 20.8874C118.101 20.8987 118.394 20.8943 118.69 20.8743C118.813 20.8656 118.927 20.9126 119.043 20.8743C119.243 20.8091 119.442 20.8056 119.639 20.8639C119.669 20.8726 119.699 20.8726 119.728 20.8639C119.885 20.8187 120.041 20.8117 120.196 20.8422C120.216 20.8465 120.233 20.8561 120.246 20.8709C120.256 20.8822 120.264 20.8943 120.269 20.9074C120.277 20.9274 120.292 20.9387 120.314 20.9404C120.489 20.9552 120.656 20.9587 120.814 20.9508C120.931 20.9456 121.048 20.9526 121.164 20.9708C121.275 20.9891 121.388 20.9917 121.505 20.9795C121.778 20.9526 122.03 20.9743 122.26 21.0447C122.407 21.689 122.492 22.1838 122.515 22.5307C122.548 23.0289 122.559 23.6088 122.549 24.2705C122.545 24.487 122.493 24.8365 122.215 24.8365C119.751 24.8382 116.42 24.8391 112.22 24.8391C112.15 24.8391 112.105 24.8722 112.084 24.9391C112.068 24.9904 112.082 25.073 112.125 25.1869C112.1 25.1773 112.081 25.1739 112.067 25.1765C112.059 25.1782 112.052 25.1765 112.047 25.1686C112.045 25.1652 112.044 25.1617 112.045 25.1573C112.049 25.1217 112.04 25.1182 112.02 25.1486C112.008 25.166 111.995 25.1826 111.981 25.1991C111.961 25.2217 111.931 25.2321 111.901 25.2252C111.696 25.1756 111.488 25.1608 111.279 25.1817C111.259 25.1834 111.241 25.1773 111.227 25.1626C111.221 25.1556 111.212 25.1521 111.201 25.1513C111.021 25.1426 110.825 25.1469 110.61 25.1652C110.423 25.1808 110.243 25.1191 110.053 25.1234C109.532 25.1373 109.01 25.1278 108.488 25.0947C108.481 25.0947 108.471 25.0956 108.459 25.1C108.438 25.106 108.416 25.1095 108.395 25.1095L107.054 25.0947C107.041 25.0947 107.027 25.093 107.014 25.0887C106.989 25.0808 106.966 25.0843 106.946 25.0982C106.864 25.1547 106.822 25.2495 106.821 25.3825C106.563 23.6818 106.563 21.929 107.034 20.2631L107.141 20.344C107.175 20.3692 107.211 20.3735 107.248 20.3553C107.27 20.3457 107.289 20.35 107.306 20.3683C107.316 20.3796 107.331 20.3857 107.345 20.3848L108.517 20.3396C108.55 20.3379 108.577 20.3248 108.599 20.2996C108.612 20.284 108.629 20.2735 108.65 20.2674C108.67 20.2631 108.69 20.2622 108.71 20.2657C108.834 20.2892 108.96 20.2892 109.089 20.2674C109.246 20.2405 109.425 20.2274 109.624 20.2283C109.721 20.2283 109.818 20.2309 109.914 20.2361C110.005 20.2405 110.095 20.2396 110.183 20.2335C110.42 20.217 110.71 20.2518 111.055 20.3387C111.201 20.3761 111.34 20.4326 111.469 20.51C111.637 20.6117 111.851 20.6552 112.109 20.6404C112.115 20.6404 112.118 20.637 112.117 20.6309C112.117 20.6213 112.12 20.6152 112.126 20.6117C112.134 20.6074 112.142 20.6083 112.15 20.6135C112.191 20.6404 112.238 20.6465 112.291 20.63C112.342 20.6152 112.373 20.6257 112.384 20.6613V20.663Z" fill="#F7C04A"/>
<path d="M32.4605 21.3341L32.4579 27.1596L32.4318 26.8422C32.4301 26.8231 32.4258 26.8222 32.4179 26.8405L32.3475 27.0057C32.3293 27.0491 32.278 27.07 32.2345 27.0518C32.2319 27.0509 32.2302 27.05 32.2276 27.0483C32.1771 27.0231 32.1215 27.0178 32.0607 27.0344C32.0354 27.0413 32.0102 27.0422 31.985 27.037C31.8329 27.0074 31.6573 26.9848 31.4582 26.97C30.5846 26.9057 29.7414 26.8726 28.9278 26.87C28.8661 26.87 28.8052 26.8822 28.7444 26.9057C28.68 26.9309 28.6114 26.9396 28.5375 26.9335C28.2011 26.9031 27.8716 26.8857 27.5474 26.8796C27.4978 26.8796 27.4213 26.8648 27.3196 26.837C27.2318 26.8135 27.151 26.8127 27.0788 26.8344C26.9876 26.8613 26.9145 26.8666 26.8615 26.85C27.1405 26.2797 27.0953 25.6197 27.078 25.0172C27.0762 24.9476 27.0406 24.9129 26.971 24.912C26.2756 24.9024 25.6228 24.8998 25.0126 24.9042C23.8712 24.912 22.3569 25.1902 22.4317 26.6988C22.0031 26.7327 21.618 26.7405 21.2781 26.7214C21.1677 26.7153 21.0374 26.6892 20.8887 26.6448C20.8644 26.637 20.8444 26.6179 20.8366 26.5935L20.8087 26.504C20.7974 26.4709 20.7766 26.4483 20.7444 26.4353C20.5636 26.3631 20.388 26.4197 20.235 26.4049C20.0333 26.3866 19.8386 26.3649 19.6396 26.4336C19.5361 26.4692 19.4309 26.464 19.3223 26.4179C19.2918 26.4049 19.2614 26.4023 19.2293 26.4101C18.9285 26.4831 18.679 26.4144 18.3826 26.4544C18.2157 26.4762 18.0366 26.4753 17.8445 26.4501C17.8254 26.4475 17.8054 26.4501 17.7889 26.4596C17.7515 26.4779 17.7158 26.4744 17.6802 26.4483C17.6585 26.4318 17.6307 26.4249 17.6037 26.4292C17.5037 26.4457 17.409 26.4336 17.3177 26.3918C17.2856 26.377 17.2482 26.3918 17.2334 26.424C17.2299 26.4327 17.2273 26.4414 17.2282 26.4501C17.2291 26.5188 17.2065 26.5779 17.1595 26.6275C17.1386 26.6492 17.1265 26.6448 17.1239 26.6153C17.116 26.5292 17.0961 26.4944 17.0648 26.5109C17.2482 24.5103 18.5173 23.1513 20.3689 22.5044C21.2755 22.1871 22.2865 22.0253 23.4035 22.0184C24.5162 22.0114 25.6984 22.0071 26.9493 22.0045C27.0336 22.0045 27.0771 21.9619 27.078 21.8775L27.0884 21.1385C27.1058 21.155 27.1214 21.1628 27.1353 21.162C27.164 21.162 27.1779 21.1472 27.1771 21.1185C27.1762 21.0915 27.1884 21.075 27.2144 21.0681C27.2336 21.062 27.2544 21.0733 27.2596 21.0924C27.2605 21.0959 27.2614 21.0994 27.2614 21.1028C27.2622 21.1715 27.297 21.2011 27.3648 21.1924C27.3796 21.1907 27.3909 21.1967 27.3987 21.2098C27.437 21.2785 27.4891 21.2854 27.5543 21.2324C27.5821 21.2089 27.6169 21.1959 27.6526 21.195C27.683 21.195 27.7091 21.2063 27.7299 21.2306C27.7551 21.2602 27.7734 21.2567 27.7847 21.2193C27.7873 21.2115 27.7882 21.2037 27.7882 21.1959C27.7873 21.1785 27.7951 21.1698 27.8125 21.1689C27.9003 21.1672 27.9664 21.1307 28.0568 21.1307C28.2454 21.1307 28.4384 21.1324 28.6366 21.1359C28.7539 21.1385 28.8748 21.1333 28.9991 21.1202C29.1755 21.1028 29.3537 21.1646 29.5389 21.1437C29.8483 21.1098 30.1474 21.1037 30.436 21.1254C30.5273 21.1324 30.5733 21.1924 30.6655 21.1933C30.8706 21.1959 31.1592 21.162 31.3548 21.2202C31.513 21.2689 31.6408 21.3298 31.799 21.2193C31.8225 21.2028 31.8381 21.208 31.8477 21.235L31.859 21.2646C31.8651 21.2828 31.8781 21.2898 31.8964 21.2854C31.939 21.2776 31.9798 21.2802 32.0198 21.2933C32.1632 21.3419 32.2928 21.315 32.4101 21.2124C32.4145 21.208 32.4153 21.2028 32.4118 21.1976C32.4075 21.1915 32.4031 21.1846 32.3988 21.1776C32.3849 21.155 32.391 21.1463 32.4171 21.1507C32.4205 21.1507 32.424 21.1507 32.4266 21.1507C32.4344 21.1507 32.4371 21.1541 32.4353 21.162C32.424 21.2167 32.4327 21.2741 32.4605 21.3332V21.3341Z" fill="#F4B225"/>
<path d="M104.278 21.549V26.2893C104.245 26.2841 104.232 26.3085 104.24 26.3633C104.24 26.3554 104.238 26.3493 104.232 26.3433C104.223 26.3346 104.208 26.3346 104.199 26.3433C104.197 26.3467 104.194 26.3502 104.193 26.3546C104.191 26.3685 104.193 26.3806 104.203 26.3902C104.226 26.4154 104.222 26.4224 104.189 26.4111C104.177 26.4067 104.165 26.4015 104.156 26.3946C104.131 26.3763 104.103 26.3685 104.072 26.3719C103.771 26.4059 103.473 26.4059 103.178 26.3737C102.925 26.3467 102.652 26.3398 102.359 26.3537C102.026 26.3693 101.695 26.3676 101.367 26.3476C101.219 26.338 101.066 26.3354 100.908 26.3398C100.744 26.3441 100.586 26.3398 100.435 26.3241C100.405 26.3207 100.377 26.3259 100.35 26.3398C100.333 26.3493 100.315 26.3528 100.295 26.3502C100.076 26.3233 99.8591 26.3259 99.6426 26.3572C99.6131 26.3615 99.5844 26.3589 99.5566 26.3476C99.4966 26.3241 99.4357 26.3189 99.374 26.332C99.2688 26.3528 99.1767 26.3363 99.075 26.3033C99.0672 26.3007 99.0593 26.3007 99.0524 26.305C99.0446 26.3093 99.0376 26.3163 99.0324 26.3241C99.0063 26.365 98.9968 26.3615 99.0037 26.3137C99.0081 26.2824 99.0028 26.2528 98.9881 26.2259C98.9846 26.2181 98.9768 26.2137 98.9681 26.2154C98.9472 26.2198 98.9385 26.2259 98.9411 26.2337C98.9533 26.2641 98.9437 26.2737 98.9116 26.2633C98.902 26.2607 98.8907 26.2589 98.8777 26.258L98.8985 25.0069C98.8994 24.9599 98.862 24.9217 98.8151 24.9199C98.0727 24.8999 97.3451 24.8973 96.6315 24.9138C96.3281 24.9208 96.0334 24.973 95.7283 25.0234C95.4258 25.0738 95.1485 25.1825 94.8964 25.3495C94.5817 25.5581 94.3809 25.8216 94.2948 26.1389C94.0367 26.0416 93.7411 25.9842 93.4073 25.9668C93.3795 25.965 93.3543 25.972 93.3308 25.9868C93.3004 26.0068 93.27 26.0068 93.2395 25.985C93.2074 25.9624 93.1717 25.9546 93.1326 25.9607C92.7866 26.0172 92.4902 26.0398 92.2433 26.0276C92.0877 26.0198 91.9226 25.992 91.7479 25.9424C91.6488 25.9146 91.5488 25.905 91.4488 25.9137C91.3436 25.9224 91.2454 25.9137 91.1533 25.8868C91.0185 25.8477 90.8812 25.8216 90.7412 25.8068C90.6413 25.7972 90.5387 25.7868 90.4318 25.7772C90.2119 25.7572 89.9954 25.7755 89.7842 25.7155C89.679 25.6859 89.5921 25.7103 89.4947 25.6781C89.4643 25.6685 89.4347 25.6712 89.4069 25.6868C89.3765 25.7033 89.3513 25.6981 89.3304 25.6712C89.3121 25.6477 89.2878 25.6364 89.2574 25.6355C89.1505 25.6346 89.074 25.6546 89.0279 25.6972C89.4347 24.1322 90.6221 23.0575 92.126 22.5167C93.0831 22.1724 94.1549 22.0011 95.3415 22.0029C96.4211 22.0046 97.5477 22.0055 98.7203 22.0046C98.8099 22.0046 98.8733 21.9776 98.9116 21.9229L98.9855 21.4073C98.9915 21.3699 99.0072 21.3647 99.0341 21.3908C99.0463 21.4021 99.0507 21.4151 99.0472 21.429C99.0428 21.4507 99.0507 21.462 99.0724 21.4638C99.2819 21.482 99.4227 21.4855 99.4948 21.4742C99.6844 21.4455 99.8713 21.4203 100.056 21.3986C100.219 21.3794 100.408 21.3751 100.622 21.3855C100.983 21.4029 101.339 21.409 101.687 21.4038C101.828 21.4012 101.965 21.4003 102.099 21.3994C102.451 21.3968 102.847 21.4177 103.287 21.4603C103.376 21.469 103.489 21.469 103.627 21.4603C103.795 21.449 103.944 21.4942 104.105 21.5229C104.134 21.5281 104.152 21.5446 104.159 21.5733C104.165 21.5933 104.177 21.6072 104.195 21.6142C104.236 21.6307 104.245 21.6568 104.219 21.6925C104.217 21.6951 104.217 21.6985 104.219 21.702C104.233 21.7307 104.239 21.729 104.236 21.6968C104.228 21.6186 104.242 21.569 104.278 21.549Z" fill="#F7C04A"/>
<path d="M112.125 25.1885C112.317 26.0406 112.806 26.6632 113.595 27.057C114.526 27.5222 115.663 27.5613 116.66 27.3405C117.437 27.1674 118.11 26.771 118.682 26.1493C118.877 25.9363 119.069 25.9371 119.258 26.151C120.075 27.0788 120.912 28.0326 121.77 29.0133C121.89 29.1507 121.885 29.2907 121.754 29.4333C119.64 31.7452 116.379 32.3078 113.375 31.8539C112.613 31.7383 111.879 31.5191 111.172 31.1966C108.747 30.088 107.276 27.9743 106.821 25.3842C106.821 25.2511 106.864 25.1564 106.946 25.0998C106.966 25.0859 106.989 25.0825 107.014 25.0903C107.027 25.0946 107.041 25.0964 107.054 25.0964L108.394 25.1111C108.416 25.1111 108.438 25.1077 108.459 25.1016C108.471 25.0972 108.481 25.0955 108.488 25.0964C109.01 25.1294 109.532 25.139 110.053 25.1251C110.243 25.1207 110.423 25.1824 110.61 25.1668C110.825 25.1485 111.021 25.1442 111.201 25.1529C111.212 25.1529 111.221 25.1572 111.227 25.1642C111.241 25.179 111.259 25.1851 111.279 25.1833C111.488 25.1624 111.696 25.1772 111.901 25.2268C111.931 25.2337 111.961 25.2233 111.981 25.2007C111.995 25.1842 112.008 25.1677 112.02 25.1503C112.04 25.1198 112.049 25.1233 112.045 25.159C112.045 25.1633 112.045 25.1668 112.047 25.1703C112.052 25.1772 112.058 25.1798 112.067 25.1781C112.081 25.1755 112.1 25.179 112.125 25.1885Z" fill="#F4B225"/>
<path d="M5.36534 25.8764C5.36794 27.6528 5.36881 29.4291 5.36968 31.2054C5.36968 31.4402 5.321 31.7193 5.02371 31.7228C3.90321 31.7375 2.36372 31.741 0.403504 31.7323C0.153152 31.7315 0.0262374 31.6063 0.0227603 31.3576C0.0036362 29.9073 -0.00157946 28.457 0.00624403 27.0068L0.0670934 25.7973C0.0679627 25.7791 0.0801326 25.7625 0.0975181 25.7547C0.122727 25.7434 0.145328 25.7451 0.163583 25.7599C0.181838 25.7747 0.202701 25.7765 0.224433 25.766C0.247903 25.7547 0.282674 25.753 0.327877 25.7599C0.523464 25.7886 0.7686 25.7912 1.06155 25.7695C1.1563 25.7625 1.23801 25.7486 1.30755 25.7286C1.49097 25.6739 1.7222 25.6808 1.91431 25.6878C2.10989 25.6947 2.31591 25.6895 2.53149 25.6712C2.5654 25.6686 2.59669 25.6756 2.62538 25.6939C2.71404 25.7486 2.79575 25.8051 2.90354 25.8069C3.04176 25.8095 3.17997 25.8121 3.31819 25.8147C3.68242 25.8225 3.99796 25.7773 4.36567 25.8747C4.39522 25.8825 4.41435 25.9017 4.42304 25.9321C4.4326 25.966 4.45433 25.9929 4.48737 26.0121C4.51779 26.0286 4.53865 26.0208 4.54996 25.9877C4.55256 25.9799 4.55517 25.9712 4.55865 25.9634C4.56299 25.9521 4.57082 25.9425 4.58038 25.9347C4.60472 25.9173 4.62471 25.9208 4.63949 25.9451C4.64992 25.9616 4.66383 25.966 4.68209 25.9573C4.7412 25.9286 4.79161 25.9382 4.83421 25.986C4.85333 26.0077 4.86463 26.0043 4.86724 25.9756C4.86811 25.9677 4.87246 25.9616 4.87941 25.959C4.88723 25.9547 4.89593 25.9538 4.90375 25.9556C4.98286 25.9721 5.06631 25.9808 5.15497 25.9816C5.18018 25.9816 5.20365 25.9886 5.22625 26.0008C5.24016 26.0086 5.24712 26.0216 5.24798 26.0382C5.25059 26.0799 5.25668 26.0808 5.26798 26.0399C5.31231 25.8756 5.3297 25.7217 5.3184 25.5791C5.31753 25.566 5.32274 25.56 5.33578 25.5591H5.33665C5.34795 25.5591 5.35404 25.5643 5.35404 25.5756C5.35664 25.6756 5.36012 25.7756 5.36534 25.8764Z" fill="#F1A809"/>
<path d="M58.4745 25.9842C58.5614 26.5606 58.8335 26.9362 59.2916 27.1093C59.5063 27.1901 59.808 27.2249 60.1965 27.2127C60.5095 27.2032 60.8198 27.2058 61.1284 27.2214C61.337 27.2318 61.5013 27.404 61.5022 27.6135C61.5048 28.7639 61.5065 29.9681 61.5065 31.2245C61.5065 31.5288 61.4074 31.7505 61.071 31.7679C59.5411 31.8444 58.046 31.9139 56.536 31.647C55.3129 31.4314 54.1177 30.8949 53.6378 29.6533C53.4301 29.116 53.3171 28.59 53.298 28.0744C53.2762 27.4996 53.2701 26.8206 53.2788 26.0355C53.2641 25.8676 53.2884 25.7164 53.3536 25.5807C53.3788 25.5286 53.3945 25.5312 53.4023 25.5885C53.4066 25.619 53.4162 25.6468 53.4318 25.6738C53.4536 25.7094 53.4701 25.7077 53.4814 25.6677C53.4901 25.639 53.5101 25.6216 53.5414 25.6172C53.697 25.5955 53.843 25.6051 53.9803 25.6477C54.0916 25.6816 54.2185 25.7016 54.362 25.7068C54.528 25.7129 54.6958 25.7251 54.8644 25.7416C55.0356 25.759 55.1991 25.765 55.3529 25.7607C55.6111 25.7529 55.8797 25.7451 56.1587 25.7364C56.1718 25.7364 56.1831 25.739 56.1944 25.7459C56.2013 25.7503 56.2048 25.7564 56.2048 25.765C56.2048 25.7781 56.2109 25.785 56.2239 25.785C56.4691 25.7842 56.7342 25.7616 56.9733 25.8129C57.1193 25.8442 57.2236 25.7868 57.3636 25.8294C57.5765 25.8929 57.7678 25.8468 57.979 25.8937C58.0686 25.9137 58.1607 25.9346 58.2554 25.9563C58.3137 25.9702 58.3537 26.0007 58.3737 26.0468C58.3971 26.0998 58.4093 26.0954 58.4093 26.032V25.9894C58.4093 25.9642 58.4215 25.9555 58.445 25.9624C58.4545 25.965 58.4649 25.9729 58.4745 25.9842Z" fill="#F1A809"/>
<path d="M94.2948 26.1397C94.0775 27.163 94.5799 27.9586 95.5822 28.1021C96.9748 28.3012 98.5682 27.7665 98.8776 26.2588C98.8907 26.2588 98.902 26.2614 98.9116 26.264C98.9437 26.2744 98.9533 26.264 98.9411 26.2345C98.9385 26.2266 98.9472 26.2205 98.9681 26.2162C98.9767 26.2145 98.9846 26.2188 98.988 26.2266C99.0028 26.2536 99.008 26.2831 99.0037 26.3144C98.9967 26.3623 99.0063 26.3657 99.0324 26.3249C99.0376 26.3171 99.0445 26.3101 99.0524 26.3057C99.0593 26.3014 99.0672 26.3014 99.075 26.304C99.1767 26.3371 99.2688 26.3536 99.374 26.3327C99.4357 26.3197 99.4966 26.3249 99.5566 26.3484C99.5844 26.3597 99.6131 26.3623 99.6426 26.3579C99.8591 26.3266 100.076 26.324 100.295 26.351C100.315 26.3536 100.333 26.3501 100.35 26.3405C100.377 26.3266 100.405 26.3214 100.435 26.3249C100.586 26.3397 100.744 26.3449 100.908 26.3405C101.066 26.3362 101.219 26.3388 101.367 26.3484C101.695 26.3684 102.026 26.3701 102.359 26.3544C102.652 26.3405 102.925 26.3475 103.178 26.3744C103.473 26.4066 103.771 26.4066 104.072 26.3727C104.103 26.3692 104.131 26.377 104.156 26.3953C104.165 26.4023 104.177 26.4075 104.189 26.4118C104.222 26.4231 104.226 26.4162 104.203 26.391C104.193 26.3814 104.191 26.3692 104.193 26.3553C104.196 26.3423 104.208 26.3344 104.221 26.3371C104.225 26.3379 104.229 26.3397 104.232 26.3431C104.238 26.3492 104.241 26.3553 104.24 26.3631C104.232 26.3084 104.245 26.284 104.279 26.2892C104.284 27.9569 104.285 29.6245 104.283 31.2922C104.283 31.5921 104.128 31.7417 103.819 31.7399C102.498 31.7312 101.02 31.7304 99.3853 31.7373C99.0802 31.7391 98.902 31.6234 98.9081 31.2722C98.915 30.8818 98.9133 30.5218 98.9029 30.194C98.8976 30.021 98.8455 30.0053 98.7455 30.1471C98.0362 31.1626 96.9774 31.7356 95.7743 31.9051C94.9077 32.0269 94.0393 32.0286 93.1674 31.9095C91.3323 31.6582 89.6677 30.7079 89.0826 28.902C88.7584 27.8995 88.7401 26.8318 89.0279 25.698C89.0739 25.6554 89.1504 25.6354 89.2574 25.6363C89.2878 25.6363 89.3121 25.6484 89.3304 25.6719C89.3512 25.6989 89.3765 25.7041 89.4069 25.6876C89.4347 25.6719 89.4643 25.6693 89.4947 25.6789C89.592 25.711 89.679 25.6867 89.7841 25.7162C89.9954 25.7762 90.2118 25.758 90.4318 25.778C90.5387 25.7875 90.6412 25.798 90.7412 25.8075C90.8812 25.8223 91.0185 25.8484 91.1533 25.8875C91.2454 25.9145 91.3436 25.9232 91.4488 25.9145C91.5488 25.9058 91.6487 25.9154 91.7478 25.9432C91.9226 25.9927 92.0877 26.0206 92.2433 26.0284C92.4902 26.0406 92.7866 26.018 93.1326 25.9614C93.1717 25.9554 93.2074 25.9632 93.2395 25.9858C93.2699 26.0075 93.3004 26.0075 93.3308 25.9875C93.3543 25.9727 93.3795 25.9658 93.4073 25.9675C93.7411 25.9849 94.0366 26.0423 94.2948 26.1397Z" fill="#F4B225"/>
<path d="M138.991 27.058C138.914 28.6048 138.23 29.8081 136.939 30.6663C135.055 31.9192 132.686 32.107 130.446 31.9522C127.393 31.7409 123.846 30.1898 124.092 26.5493C124.114 26.2233 124.419 26.2146 124.662 26.2155C126.022 26.2172 127.417 26.2172 128.847 26.2155C129.055 26.2155 129.211 26.3546 129.218 26.5667C129.243 27.3188 129.94 27.7431 130.606 27.9005C131.329 28.0718 132.023 28.0639 132.69 27.8779C133.15 27.7509 133.598 27.3849 133.597 26.8806C133.597 26.5876 133.46 26.3615 133.186 26.2024C133.281 26.172 133.367 26.1789 133.444 26.2215C133.468 26.2346 133.491 26.2389 133.514 26.2346C133.523 26.2328 133.527 26.2276 133.526 26.2181C133.526 26.2042 133.533 26.1972 133.547 26.1963C134.127 26.1798 134.51 26.1772 134.696 26.1885C135.07 26.212 135.444 26.2215 135.818 26.2163C135.929 26.2163 136.046 26.1589 136.152 26.1815C136.301 26.212 136.45 26.2233 136.602 26.2137C136.739 26.205 136.871 26.2137 136.999 26.2398C137.157 26.272 137.315 26.2798 137.474 26.2615C137.507 26.2572 137.538 26.2633 137.568 26.2781C137.599 26.2928 137.633 26.3015 137.672 26.3041C137.936 26.3207 138.194 26.3207 138.447 26.305C138.479 26.3024 138.51 26.3102 138.538 26.3267C138.588 26.3563 138.634 26.3528 138.675 26.3163C138.7 26.2946 138.717 26.2989 138.729 26.3302C138.75 26.3885 138.787 26.4041 138.842 26.3772C138.879 26.358 138.9 26.3693 138.905 26.4102L138.991 27.0588V27.058Z" fill="#F4B225"/>
<path d="M43.9559 26.325C44.0402 26.3111 44.0932 26.3467 44.1132 26.4328C44.1219 26.4693 44.1419 26.4771 44.1732 26.4554C44.2532 26.4015 44.3418 26.3841 44.4392 26.4032C44.5122 26.418 44.5878 26.425 44.6652 26.425C44.9834 26.4258 45.2989 26.4267 45.6127 26.4276C45.6883 26.4276 45.7622 26.4258 45.8361 26.4197C45.9204 26.4137 46.0013 26.4284 46.0787 26.4641C46.1047 26.4763 46.1325 26.4815 46.1604 26.4797C46.4646 26.465 46.7628 26.498 47.067 26.4954C47.26 26.4954 47.4312 26.5397 47.6207 26.5441C48.0319 26.5528 48.4309 26.5928 48.8195 26.6641C48.9325 26.6849 49.0455 26.6962 49.1585 26.6971C49.2732 26.698 49.3854 26.6962 49.494 26.6902C49.5279 26.6875 49.5453 26.7032 49.5462 26.7371L49.5601 27.1249C49.4845 28.5239 48.8847 29.6429 47.7607 30.481C47.0383 31.0193 46.249 31.3975 45.3928 31.6166C44.9277 31.7357 44.4609 31.8418 43.9854 31.8948C42.3434 32.0783 40.6344 32.0391 39.061 31.6305C37.7232 31.2818 36.4749 30.6654 35.596 29.6055C34.9449 28.8204 34.6337 27.8396 34.6616 26.6632C34.6694 26.3702 34.8006 26.2224 35.0553 26.2206C36.454 26.2111 37.8675 26.2102 39.2948 26.2189C39.5304 26.2198 39.7712 26.2511 39.7894 26.5458C39.8129 26.9258 39.9581 27.2231 40.2249 27.437C41.0325 28.0865 42.4181 28.1474 43.3343 27.8509C44.0089 27.6327 44.4731 26.9927 43.9559 26.325Z" fill="#F1A809"/>
<path d="M22.4317 26.6989C22.4865 27.4214 22.8655 27.8762 23.5696 28.0649C23.8573 28.1422 24.1868 28.1709 24.5597 28.1509C25.2117 28.117 25.7889 27.9083 26.2913 27.5249C26.5208 27.3493 26.7112 27.1241 26.8616 26.8502C26.9146 26.8667 26.9876 26.8615 27.0789 26.8345C27.151 26.8128 27.2319 26.8137 27.3197 26.8372C27.4214 26.865 27.4979 26.8789 27.5474 26.8798C27.8717 26.8858 28.2011 26.9032 28.5375 26.9337C28.6114 26.9398 28.6801 26.9311 28.7444 26.9058C28.8053 26.8824 28.8661 26.8702 28.9278 26.8702C29.7415 26.8728 30.5847 26.9058 31.4583 26.9702C31.6574 26.985 31.8329 27.0076 31.9851 27.0371C32.0103 27.0424 32.0355 27.0415 32.0607 27.0345C32.1215 27.018 32.1772 27.0232 32.2276 27.0484C32.2702 27.071 32.3224 27.0545 32.345 27.0119C32.3458 27.0102 32.3467 27.0076 32.3484 27.0058L32.4188 26.8406C32.4267 26.8224 32.431 26.8232 32.4327 26.8424L32.4588 27.1597C32.464 28.5431 32.4667 29.9281 32.4675 31.3132C32.4675 31.5888 32.325 31.7288 32.0381 31.7314C30.5673 31.7436 29.0356 31.7418 27.4422 31.7271C27.2553 31.7262 27.1032 31.5775 27.0954 31.3906C27.0797 31.0063 27.0754 30.5941 27.0815 30.1551C27.0823 30.0838 27.0519 30.0646 26.9893 30.0985C26.9546 30.1168 26.9259 30.142 26.9041 30.1742C25.7263 31.8966 23.6105 32.1166 21.6911 31.9479C20.4689 31.8401 19.158 31.3923 18.2931 30.5507C17.1778 29.4664 16.9361 28.0414 17.0657 26.5111C17.097 26.4946 17.117 26.5294 17.1248 26.6154C17.1274 26.645 17.1396 26.6494 17.1604 26.6276C17.2074 26.5781 17.23 26.5189 17.2291 26.4502C17.2291 26.4155 17.2569 26.3868 17.2926 26.3868C17.3012 26.3868 17.3108 26.3885 17.3186 26.392C17.4099 26.4337 17.5047 26.4459 17.6046 26.4294C17.6316 26.425 17.6594 26.432 17.6811 26.4485C17.7168 26.4746 17.7524 26.4781 17.7898 26.4598C17.8063 26.4511 17.8263 26.4476 17.8454 26.4502C18.0375 26.4755 18.2166 26.4763 18.3835 26.4546C18.6799 26.4146 18.9294 26.4833 19.2302 26.4102C19.2623 26.4024 19.2928 26.405 19.3232 26.4181C19.4318 26.4642 19.537 26.4694 19.6405 26.4337C19.8395 26.365 20.0343 26.3868 20.2359 26.405C20.3889 26.4198 20.5645 26.3633 20.7453 26.4355C20.7775 26.4485 20.7983 26.4711 20.8096 26.5041L20.8375 26.5937C20.8453 26.618 20.8653 26.6372 20.8896 26.645C21.0383 26.6893 21.1687 26.7154 21.2791 26.7215C21.6189 26.7406 22.004 26.7328 22.4326 26.6989H22.4317Z" fill="#F1A809"/>
<path d="M76.0409 28.1081V31.4017C76.04 31.5808 75.8957 31.726 75.7167 31.7269C74.2059 31.7382 72.6612 31.7408 71.0817 31.7338C70.8322 31.7338 70.7061 31.6008 70.7035 31.3356C70.6914 30.1053 70.6844 28.8741 70.6827 27.6438L70.6922 27.596C70.7018 27.5491 70.7183 27.5464 70.7427 27.5873C70.7661 27.6256 70.7679 27.6656 70.7487 27.7064C70.7435 27.7186 70.7487 27.7325 70.76 27.7377C70.7618 27.7386 70.7644 27.7395 70.767 27.7395C70.7748 27.7403 70.7818 27.7403 70.7896 27.7395C70.7974 27.7377 70.8018 27.7325 70.8026 27.7247C70.807 27.6786 70.8235 27.6412 70.8539 27.6143C70.8757 27.5943 70.9009 27.5899 70.9296 27.5995C71.0617 27.6447 71.1912 27.6143 71.3233 27.6647C71.4389 27.709 71.5459 27.7299 71.645 27.729C71.7606 27.7282 71.8762 27.7386 71.9918 27.7603C72.0909 27.7786 72.1952 27.7899 72.3048 27.7934C73.0358 27.8203 73.7747 27.8212 74.5205 27.7969C74.6744 27.7916 74.8969 27.836 75.1881 27.9299C75.2898 27.9621 75.395 27.9803 75.5046 27.9829C75.6167 27.9855 75.7314 27.9916 75.8497 28.0012C75.8783 28.0029 75.901 28.016 75.9175 28.0403C75.9462 28.0829 75.9496 28.1246 75.9279 28.1664C75.9218 28.1777 75.9227 28.189 75.9296 28.1994C75.9348 28.2055 75.9375 28.2133 75.9375 28.222C75.9375 28.2438 75.9401 28.2446 75.9461 28.2229C75.9887 28.056 76.0209 28.0177 76.0409 28.1081Z" fill="#F1A809"/>
</g>
<defs>
<clipPath id="clip0_2125_52">
<rect width="139" height="32" fill="white"/>
</clipPath>
</defs>
</svg>
