<svg width="49" height="48" viewBox="0 0 49 48" fill="none" xmlns="http://www.w3.org/2000/svg">
<path d="M0.75 0.25H38.25C43.7729 0.25 48.25 4.72715 48.25 10.25V37.75C48.25 43.2729 43.7728 47.75 38.25 47.75H0.75V0.25Z" fill="#EEBA51"/>
<path d="M29.9377 20.8736L22.2694 17.0394C17.1183 14.4594 15.0042 16.5736 17.5842 21.7246L18.3635 23.2834C18.5875 23.7402 18.5875 24.2688 18.3635 24.7257L17.5842 26.2754C15.0042 31.4265 17.1094 33.5407 22.2694 30.9607L29.9377 27.1265C33.3777 25.4065 33.3777 22.5936 29.9377 20.8736ZM27.0442 24.6719H22.2067C21.8394 24.6719 21.5348 24.3673 21.5348 24C21.5348 23.6327 21.8394 23.3282 22.2067 23.3282H27.0442C27.4114 23.3282 27.716 23.6327 27.716 24C27.716 24.3673 27.4114 24.6719 27.0442 24.6719Z" fill="white"/>
</svg>
